<mxfile host="app.diagrams.net" modified="2024-06-24T16:19:58.546Z" agent="Mozilla/5.0 (Windows NT 10.0; Win64; x64) AppleWebKit/537.36 (KHTML, like Gecko) Chrome/126.0.0.0 Safari/537.36" etag="HTRLGsi-_ohj96Cj-1rT" version="24.6.2" type="github">
  <diagram name="PÃ¡gina-1" id="vAoiRDk-Um99plZits1J">
    <mxGraphModel dx="1120" dy="468" grid="1" gridSize="10" guides="1" tooltips="1" connect="1" arrows="1" fold="1" page="1" pageScale="1" pageWidth="827" pageHeight="1169" math="0" shadow="0">
      <root>
        <mxCell id="0" />
        <mxCell id="1" parent="0" />
        <mxCell id="hl_e-V0mE8MtEec9M4ND-1" value="" style="whiteSpace=wrap;html=1;aspect=fixed;fillColor=#B5B5B5;strokeColor=#666666;strokeWidth=0;gradientColor=#b3b3b3;" parent="1" vertex="1">
          <mxGeometry x="380" y="340" width="100" height="100" as="geometry" />
        </mxCell>
        <mxCell id="hl_e-V0mE8MtEec9M4ND-2" value="" style="whiteSpace=wrap;html=1;aspect=fixed;fillColor=#B5B5B5;gradientColor=#BABABA;strokeColor=#666666;strokeWidth=0;" parent="1" vertex="1">
          <mxGeometry x="20" y="340" width="100" height="100" as="geometry" />
        </mxCell>
        <mxCell id="hl_e-V0mE8MtEec9M4ND-3" value="" style="whiteSpace=wrap;html=1;aspect=fixed;fillColor=#B5B5B5;gradientColor=#BABABA;strokeColor=#666666;strokeWidth=0;" parent="1" vertex="1">
          <mxGeometry x="140" y="340" width="100" height="100" as="geometry" />
        </mxCell>
        <mxCell id="hl_e-V0mE8MtEec9M4ND-4" value="" style="whiteSpace=wrap;html=1;aspect=fixed;fillColor=#B5B5B5;gradientColor=#BABABA;strokeColor=#666666;strokeWidth=0;" parent="1" vertex="1">
          <mxGeometry x="260" y="340" width="100" height="100" as="geometry" />
        </mxCell>
        <mxCell id="hl_e-V0mE8MtEec9M4ND-5" value="" style="whiteSpace=wrap;html=1;aspect=fixed;fillColor=#B5B5B5;gradientColor=#BABABA;strokeColor=#666666;strokeWidth=0;" parent="1" vertex="1">
          <mxGeometry x="500" y="340" width="100" height="100" as="geometry" />
        </mxCell>
        <mxCell id="hl_e-V0mE8MtEec9M4ND-6" value="" style="whiteSpace=wrap;html=1;aspect=fixed;fillColor=#B5B5B5;gradientColor=#BABABA;strokeColor=#666666;strokeWidth=0;" parent="1" vertex="1">
          <mxGeometry x="620" y="340" width="100" height="100" as="geometry" />
        </mxCell>
        <mxCell id="hl_e-V0mE8MtEec9M4ND-7" value="&lt;font style=&quot;font-size: 17px;&quot; face=&quot;Times New Roman&quot;&gt;Rosa&lt;/font&gt;" style="text;html=1;align=center;verticalAlign=middle;whiteSpace=wrap;rounded=0;" parent="1" vertex="1">
          <mxGeometry x="160" y="375" width="60" height="30" as="geometry" />
        </mxCell>
        <mxCell id="hl_e-V0mE8MtEec9M4ND-8" value="&lt;font face=&quot;Times New Roman&quot; style=&quot;font-size: 17px;&quot;&gt;Verde&lt;/font&gt;" style="text;html=1;align=center;verticalAlign=middle;whiteSpace=wrap;rounded=0;" parent="1" vertex="1">
          <mxGeometry x="40" y="375" width="60" height="30" as="geometry" />
        </mxCell>
        <mxCell id="hl_e-V0mE8MtEec9M4ND-9" value="&lt;font style=&quot;font-size: 17px;&quot; face=&quot;Times New Roman&quot;&gt;Naranja&lt;/font&gt;" style="text;html=1;align=center;verticalAlign=middle;whiteSpace=wrap;rounded=0;" parent="1" vertex="1">
          <mxGeometry x="280" y="375" width="60" height="30" as="geometry" />
        </mxCell>
        <mxCell id="hl_e-V0mE8MtEec9M4ND-10" value="&lt;font style=&quot;font-size: 17px;&quot;&gt;Azul&lt;/font&gt;" style="text;html=1;align=center;verticalAlign=middle;whiteSpace=wrap;rounded=0;" parent="1" vertex="1">
          <mxGeometry x="400" y="375" width="60" height="30" as="geometry" />
        </mxCell>
        <mxCell id="hl_e-V0mE8MtEec9M4ND-11" value="&lt;font style=&quot;font-size: 17px;&quot;&gt;Morado&lt;/font&gt;" style="text;html=1;align=center;verticalAlign=middle;whiteSpace=wrap;rounded=0;" parent="1" vertex="1">
          <mxGeometry x="520" y="375" width="60" height="30" as="geometry" />
        </mxCell>
        <mxCell id="hl_e-V0mE8MtEec9M4ND-12" value="&lt;font style=&quot;font-size: 17px;&quot;&gt;Negro&lt;/font&gt;" style="text;html=1;align=center;verticalAlign=middle;whiteSpace=wrap;rounded=0;" parent="1" vertex="1">
          <mxGeometry x="640" y="375" width="60" height="30" as="geometry" />
        </mxCell>
        <mxCell id="3IZcEz1XpjIlNzkrIGMt-4" value="&lt;font style=&quot;font-size: 17px;&quot;&gt;Colores&lt;/font&gt;" style="text;html=1;align=center;verticalAlign=middle;whiteSpace=wrap;rounded=0;" vertex="1" parent="1">
          <mxGeometry x="798.89" y="375" width="60" height="30" as="geometry" />
        </mxCell>
        <mxCell id="3IZcEz1XpjIlNzkrIGMt-3" value="" style="shape=image;verticalLabelPosition=bottom;labelBackgroundColor=default;verticalAlign=top;aspect=fixed;imageAspect=0;image=data:image/png,iVBORw0KGgoAAAANSUhEUgAABLAAAAKjCAYAAAANs/bAAAAAAXNSR0IArs4c6QAAIABJREFUeF7s3Ql0ZFd5J/DvlaRW75vdtttrewezGiYsCYQlgSQEDDNwwEBstsSACes4gNljExICBAPBMGAIcMIAMWaZHJJAJgkMMDPBEDC2WY3b+2733q3WVjO3XpWqpC71Uy+SbrV+5ePT3dKrqu/9vvtKVX/dd1/x7//+7/VwI0CAAAECBAgQIECAAAECBAgQIJCpQCHAyrQzyiJAgAABAgQIECBAgAABAgQIEGgICLAMBAIECBAgQIAAAQIECBAgQIAAgawFBFhZt0dxBAgQIECAAAECBAgQIECAAAECAixjgAABAgQIECBAgAABAgQIECBAIGsBAVbW7VEcAQIECBAgQIAAAQIECBAgQICAAMsYIECAAAECBAgQIECAAAECBAgQyFpAgJV1exRHgAABAgQIECBAgAABAgQIECAgwDIGCBAgQIAAAQIECBAgQIAAAQIEshYQYGXdHsURIECAAAECBAgQIECAAAECBAgIsIwBAgQIECBAgAABAgQIECBAgACBrAUEWFm3R3EECBAgQIAAAQIECBAgQIAAAQICLGOAAAECBAgQIECAAAECBAgQIEAgawEBVtbtURwBAgQIECBAgAABAgQIECBAgIAAyxggQIAAAQIECBAgQIAAAQIECBDIWkCAlXV7FEeAAAECBAgQIECAAAECBAgQICDAMgYIECBAgAABAgQIECBAgAABAgSyFhBgZd0exREgQIAAAQIECBAgQIAAAQIECAiwjAECBAgQIECAAAECBAgQIECAAIGsBQRYWbdHcQQIECBAgAABAgQIECBAgAABAgIsY4AAAQIECBAgQIAAAQIECBAgQCBrAQFW1u1RHAECBAgQIECAAAECBAgQIECAgADLGCBAgAABAgQIECBAgAABAgQIEMhaQICVdXsUR4AAAQIECBAgQIAAAQIECBAgIMAyBggQIECAAAECBAgQIECAAAECBLIWEGBl3R7FESBAgAABAgQIECBAgAABAgQICLCMAQIECBAgQIAAAQIECBAgQIAAgawFBFhZt0dxBAgQIECAAAECBAgQIECAAAECAixjgAABAgQIECBAgAABAgQIECBAIGsBAVbW7VEcAQIECBAgQIAAAQIECBAgQICAAMsYIECAAAECBAgQIECAAAECBAgQyFpAgJV1exRHgAABAgQIECBAgAABAgQIECAgwDIGCBAgQIAAAQIECBAgQIAAAQIEshYQYGXdHsURIECAAAECBAgQIECAAAECBAgIsIwBAgQIECBAgAABAgQIECBAgACBrAUEWFm3R3EECBAgQIAAAQIECBAgQIAAAQICLGOAAAECBAgQIECAAAECBAgQIEAgawEBVtbtURwBAgQIECBAgAABAgQIECBAgIAAyxggQIAAAQIECBAgQIAAAQIECBDIWkCAlXV7FEeAAAECBAgQIECAAAECBAgQICDAMgYIECBAgAABAgQIECBAgAABAgSyFhBgZd0exREgQIAAAQIECBAgQIAAAQIECAiwjAECBAgQIECAAAECBAgQIECAAIGsBQRYWbdHcQQIECBAgAABAgQIECBAgAABAgIsY4AAAQIECBAgQIAAAQIECBAgQCBrAQFW1u1RHAECBAgQIECAAAECBAgQIECAgADLGCBAgAABAgQIECBAgAABAgQIEMhaQICVdXsUR4AAAQIECBAgQIAAAQIECBAgIMAyBggQIECAAAECBAgQIECAAAECBLIWEGBl3R7FESBAgAABAgQIECBAgAABAgQICLCMAQIECBAgQIAAAQIECBAgQIAAgawFBFhZt0dxBAgQIECAAAECBAgQIECAAAECAixjgAABAgQIECBAgAABAgQIECBAIGsBAVbW7VEcAQIECBAgQIAAAQIECBAgQICAAMsYIECAAAECBAgQIECAAAECBAgQyFpAgJV1exRHgAABAgQIECBAgAABAgQIECAgwDIGCBAgQIAAAQIECBAgQIAAAQIEshYQYGXdHsURIECAAAECBAgQIECAAAECBAgIsIwBAgQIECBAgAABAgQIECBAgACBrAUEWFm3R3EECBAgQIAAAQIECBAgQIAAAQICLGOAAAECBAgQIECAAAECBAgQIEAgawEBVtbtURwBAgQIECBAgAABAgQIECBAgIAAyxggQIAAAQIECBAgQIAAAQIECBDIWkCAlXV7FEeAAAECBAgQIECAAAECBAgQICDAMgYIECBAgAABAgQIECBAgAABAgSyFhBgZd0exREgQIAAAQIECBAgQIAAAQIECAiwjAECBAgQIECAAAECBAgQIECAAIGsBQRYWbdHcQQIECBAgAABAgQIECBAgAABAgIsY4AAAQIECBAgQIAAAQIECBAgQCBrAQFW1u1RHAECBAgQIECAAAECBAgQIECAgADLGCBAgAABAgQIECBAgAABAgQIEMhaQICVdXsUR4AAAQIECBAgQIAAAQIECBAgIMAyBggQIECAAAECBAgQIECAAAECBLIWEGBl3R7FESBAgAABAgQIECBAgAABAgQICLCMAQIECBAgQIAAAQIECBAgQIAAgawFBFhZt0dxBAgQIECAAAECBAgQIECAAAECAixjgAABAgQIECBAgAABAgQIECBAIGsBAVbW7VEcAQIECBAgQIAAAQIECBAgQICAAMsYIECAAAECBAgQIECAAAECBAgQyFpAgJV1exRHgAABAgQIECBAgAABAgQIECAgwDIGCBAgQIAAAQIECBAgQIAAAQIEshYQYGXdHsURIECAAAECBAgQIECAAAECBAgIsIwBAgQIECBAgAABAgQIECBAgACBrAUEWFm3R3EECBAgQIAAAQIECBAgQIAAAQICLGOAAAECBAgQIECAAAECBAgQIEAgawEBVtbtURwBAgQIECBAgAABAgQIECBAgIAAyxggQIAAAQIECBAgQIAAAQIECBDIWkCAlXV7FEeAAAECBAgQIECAAAECBAgQICDAMgYIECBAgAABAgQIECBAgAABAgSyFhBgZd0exREgQIAAAQIECBAgQIAAAQIECAiwjAECBAgQIECAAAECBAgQIECAAIGsBQRYWbdHcQQIECBAgAABAgQIECBAgAABAgIsY4AAAQIECBAgQIAAAQIECBAgQCBrAQFW1u1RHAECBAgQIECAAAECBAgQIECAgADLGCBAgAABAgQIECBAgAABAgQIEMhaQICVdXsUR4AAAQIECBAgQIAAAQIECBAgIMAyBggQIECAAAECBAgQIECAAAECBLIWEGBl3R7FESBAgAABAgQIECBAgAABAgQICLCMAQIECBAgQIAAAQIECBAgQIAAgawFBFhZt0dxBAgQIECAAAECBAgQIECAAAECAixjgAABAgQIECBAgAABAgQIECBAIGsBAVbW7VEcAQIECBAgQIAAAQIECBAgQICAAMsYIECAAAECBAgQIECAAAECBAgQyFpAgJV1exRHgAABAgQIECBAgAABAgQIECAgwDIGCBAgQIAAAQIECBAgQIAAAQIEshYQYGXdHsURIECAAAECBAgQIECAAAECBAgIsIwBAgQIECBAgAABAgQIECBAgACBrAUEWFm3R3EECBAgQIAAAQIECBAgQIAAAQICLGOAAAECBAgQIECAAAECBAgQIEAgawEBVtbtURwBAgQIECBAgAABAgQIECBAgIAAyxggQIAAAQIECBAgQIAAAQIECBDIWkCAlXV7FEeAAAECBAgQIECAAAECBAgQICDAMgYIECBAgAABAgQIECBAgAABAgSyFhBgZd0exREgQIAAAQIECBAgQIAAAQIECAiwjAECBAgQIECAAAECBAgQIECAAIGsBQRYWbdHcQQIECBAgAABAgQIECBAgAABAgIsY4AAAQIECBAgQIAAAQIECBAgQCBrAQFW1u1RHAECBAgQIECAAAECBAgQIECAgADLGCBAgAABAgQIECBAgAABAgQIEMhaQICVdXsUR4AAAQIECBAgQIAAAQIECBAgIMAyBggQIECAAAECBAgQIECAAAECBLIWEGBl3R7FESBAgAABAgQIECBAgAABAgQICLCMAQIECBAgQIAAAQIECBAgQIAAgawFBFhZt0dxBAgQIECAAAECBAgQIECAAAECAixjgAABAgQIECBAgAABAgQIECBAIGsBAVbW7VEcAQIECBAgQIAAAQIECBAgQICAAMsYIECAAAECBAgQIECAAAECBAgQyFpAgJV1exRHgAABAgQIECBAgAABAgQIECAgwDIGCBAgQIAAAQIECBAgQIAAAQIEshYQYGXdHsURIECAAAECBAgQIECAAAECBAgIsIwBAgQIECBAgAABAgQIECBAgACBrAUEWFm3R3EECBAgQIAAAQIECBAgQIAAAQICLGOAAAECBAgQIECAAAECBAgQIEAgawEBVtbtURwBAgQIECBAgAABAgQIECBAgIAAyxggQIAAAQIECBAgQIAAAQIECBDIWkCAlXV7FEeAAAECBAgQIECAAAECBAgQICDAMgYIECBAgAABAgQIECBAgAABAgSyFhBgZd0exREgQIAAAQIECBAgQIAAAQIECAiwjAECBAgQIECAAAECBAgQIECAAIGsBQRYWbdHcQQIECBAgAABAgQIECBAgAABAgIsY4AAAQIECBAgQIAAAQIECBAgQCBrAQFW1u1RHAECBAgQIECAAAECBAgQIECAgADLGCBAgAABAgQIECBAgAABAgQIEMhaQICVdXsUR4AAAQIECBAgQIAAAQIECBAgIMAyBggQIECAAAECBAgQIECAAAECBLIWEGBl3R7FESBAgAABAgQIECBAgAABAgQICLCMAQIECBAgQIAAAQIECBAgQIAAgawFBFhZt0dxBAgQIECAAAECBAgQIECAAAECAixjgAABAgQIECBAgAABAgQIECBAIGsBAVbW7VEcAQIECBAgQIAAAQIECBAgQICAAMsYIECAAAECBAgQIECAAAECBAgQyFpAgJV1exRHgAABAgQIECBAgAABAgQIECAgwDIGCBAgQIAAAQIECBAgQIAAAQIEshYQYGXdHsURIECAAAECBAgQIECAAAECBAgIsIwBAgQIECBAgAABAgQIECBAgACBrAUEWFm3R3EECBAgQIAAAQIECBAgQIAAAQICLGOAAAECBAgQIECAAAECBAgQIEAgawEBVtbtURwBAgQIECBAgAABAgQIECBAgIAAyxggQIAAAQIECBAgQIAAAQIECBDIWkCAlXV7FEeAAAECBAgQIECAAAECBAgQICDAMgYIECBAgAABAgQIECBAgAABAgSyFhBgZd0exREgQIAAAQIECBAgQIAAAQIECAiwjAECBAgQIECAAAECBAgQIECAAIGsBQRYWbdHcQQIECBAgAABAgQIECBAgAABAgIsY4AAAQIECBAgQIAAAQIECBAgQCBrAQFW1u1RHAECBAgQIECAAAECBAgQIECAgADLGCBAgAABAgQIECBAgAABAgQIEMhaQICVdXsUR4AAAQIECBAgQIAAAQIECBAgIMAyBggQIECAAAECBAgQIECAAAECBLIWEGBl3R7FESBAgAABAgQIECBAgAABAgQICLCMAQIECBAgQIAAAQIECBAgQIAAgawFBFhZt0dxBAgQIECAAAECBAgQIECAAAECAixjgAABAgQIECBAgAABAgQIECBAIGsBAVbW7VEcAQIECBAgQIAAAQIECBAgQICAAMsYIECAAAECBAgQIECAAAECBAgQyFpAgJV1exRHgAABAgQIECBAgAABAgQIECAgwDIGCBAgQIAAAQIECBAgQIAAAQIEshYQYGXdHsURIECAAAECBAgQIECAAAECBAgIsIwBAgQIECBAgAABAgQIECBAgACBrAUEWFm3R3EECBAgQIAAAQIECBAgQIAAAQICLGOAAAECBAgQIECAAAECBAgQIEAgawEBVtbtURwBAgQIECBAgAABAgQIECBAgIAAyxggQIAAAQIECBAgQIAAAQIECBDIWkCAlXV7FEeAAAECBAgQIECAAAECBAgQICDAMgYIECBAgAABAgQIECBAgAABAgSyFhBgZd0exREgQIAAAQIECBAgQIAAAQIECAiwjAECBAgQIECAAAECBAgQIECAAIGsBQRYWbdHcQQIECBAgAABAgQIECBAgAABAgIsY4AAAQIECBAgQIAAAQIECBAgQCBrAQFW1u1RHAECBAgQIECAAAECBAgQIECAgADLGCBAgAABAgQIECBAgAABAgQIEMhaQICVdXsUR4AAAQIECBAgQIAAAQIECBAgIMAyBggQIECAAAECBAgQIECAAAECBLIWEGBl3R7FESBAgAABAgQIECBAgAABAgQICLCMAQIECBAgQIAAAQIECBAgQIAAgawFBFhZt0dxBAgQIECAAAECBAgQIECAAAECAixjgAABAgQIECBAgAABAgQIECBAIGsBAVbW7VEcAQIECBAgQIAAAQIECBAgQICAAMsYIECAAAECBAgQIECAAAECBAgQyFpAgJV1exRHgAABAgQIECBAgAABAgQIECAgwDIGCBAgQIAAAQIECBAgQIAAAQIEshYQYGXdHsURIECAAAECBAgQIECAAAECBAgIsIwBAgQIECBAgAABAgQIECBAgACBrAUEWFm3R3EECBAgQIAAAQIECBAgQIAAAQICLGOAAAECBAgQIECAAAECBAgQIEAgawEBVtbtURwBAgQIECBAgAABAgQIECBAgIAAyxggQIAAAQIECBAgQIAAAQIECBDIWkCAlXV7FEeAAAECBAgQIECAAAECBAgQICDAMgYIECBAgAABAgQIECBAgAABAgSyFhBgZd0exREgQIAAAQIECBAgQIAAAQIECAiwjAECBAgQIECAAAECBAgQIECAAIGsBQRYWbdHcQQIECBAgAABAgQIECBAgAABAgIsY4AAAQIECBAgQIAAAQIECBAgQCBrAQFW1u1RHAECBAgQIECAAAECBAgQIECAgADLGCBAgAABAgQIECBAgAABAgQIEMhaQICVdXsUR4AAAQIECBAgQIAAAQIECBAgIMAyBggQIECAAAECBAgQIECAAAECBLIWEGBl3R7FESBAgAABAgQIECBAgAABAgQICLCMAQIECBAgQIAAAQIECBAgQIAAgawFBFhZt0dxBAgQIECAAAECBAgQIECAAAECAixjgAABAgQIECBAgAABAgQIECBAIGsBAVbW7VEcAQIECBAgQIAAAQIECBAgQICAAMsYIECAAAECBAgQIECAAAECBAgQyFpAgJV1exRHgAABAgQIECBAgAABAgQIECAgwDIGCBAgQIAAAQIECBAgQIAAAQIEshYQYGXdHsURIECAAAECBAgQIECAAAECBAgIsIwBAgQIECBAgAABAgQIECBAgACBrAUEWFm3R3EECBAgQIAAAQIECBAgQIAAAQICLGOAAAECBAgQIECAAAECBAgQIEAgawEBVtbtURwBAgQIECBAgAABAgQIECBAgIAAyxggQIAAAQIECBAgQIAAAQIECBDIWkCAlXV7FEeAAAECBAgQIECAAAECBAgQICDAMgYIECBAgAABAgQIECBAgAABAgSyFhBgZd0exREgQIAAAQIECBAgQIAAAQIECAiwjAECBAgQIECAAAECBAgQIECAAIGsBQRYWbdHcQQIECBAgAABAgQIECBAgAABAgIsY4AAAQIECBAgQIAAAQIECBAgQCBrAQFW1u1RHAECBAgQIECAAAECBAgQIECAgADLGCBAgAABAgQIECBAgAABAgQIEMhaQICVdXsUR4AAAQIECBAgQIAAAQIECBAgIMAyBggQIECAAAECBAgQIECAAAECBLIWEGBl3R7FESBAgAABAgQIECBAgAABAgQICLCMAQIECBAgQIAAAQIECBAgQIAAgawFBFhZt0dxBAgQIECAAAECBAgQIECAAAECAixjgAABAgQIECBAgAABAgQIECBAIGsBAVbW7VEcAQIECBAgQIAAAQIECBAgQICAAMsYIECAAAECBAgQIECAAAECBAgQyFpAgJV1exRHgAABAgQIECBAgAABAgQIECAgwDIGCBAgQIAAAQIECBAgQIAAAQIEshYQYGXdHsURIECAAAECBAgQIECAAAECBAgIsIwBAgQIECBAgAABAgQIECBAgACBrAUEWFm3R3EECBAgQIAAAQIECBAgQIAAAQICLGOAAAECBAgQIECAAAECBAgQIEAgawEBVtbtURwBAgQIECBAgAABAgQIECBAgIAAyxggQIAAAQIECBAgQIAAAQIECBDIWkCAlXV7FEeAAAECBAgQIECAAAECBAgQICDAMgYIECBAgAABAgQIECBAgAABAgSyFhBgZd0exREgQIAAAQIECBAgQIAAAQIECAiwjAECBAgQIECAAAECBAgQIECAAIGsBQRYWbdHcQQIECBAgAABAgQIECBAgAABAgIsY4AAAQIECBAgQIAAAQIECBAgQCBrAQFW1u1RHAECBAgQIECAAAECBAgQIECAgADLGCBAgAABAgQIECBAgAABAgQIEMhaQICVdXsUR4AAAQIECBAgQIAAAQIECBAgIMAyBggQIECAAAECBAgQIECAAAECBLIWEGBl3R7FESBAgAABAgQIECBAgAABAgQICLCMAQIECBAgQIAAAQIECBAgQIAAgawFBFhZt0dxBAgQIECAAAECBAgQIECAAAECAixjgAABAgQIECBAgAABAgQIECBAIGsBAVbW7VEcAQIECBAgQIAAAQIECBAgQICAAMsYIECAAAECBAgQIECAAAECBAgQyFpAgJV1exRHgAABAgQIECBAgAABAgQIECAgwDIGCBAgQIAAAQIECBAgQIAAAQIEshYQYGXdHsURIECAAAECBAgQIECAAAECBAgIsIwBAgQIECBAgAABAgQIECBAgACBrAUEWFm3R3EECBAgQIAAAQIECBAgQIAAAQICLGOAAAECBAgQIECAAAECBAgQIEAgawEBVtbtURwBAgQIECBAgAABAgQIECBAgIAAyxggQIAAAQIECBAgQIAAAQIECBDIWkCAlXV7FEeAAAECBAgQIECAAAECBAgQICDAMgYIECBAgAABAgQIECBAgAABAgSyFhBgZd0exREgQIAAAQIECBAgQIAAAQIECAiwjAECBAgQIECAAAECBAgQIECAAIGsBQRYWbdHcQQIECBAgAABAgQIECBAgAABAgIsY4AAAQIECBAgQIAAAQIECBAgQCBrAQFW1u1RHAECBAgQIECAAAECBAgQIECAgADLGCBAgAABAgQIECBAgAABAgQIEMhaQICVdXsUR4AAAQIECBAgQIAAAQIECBAgIMAyBggQIECAAAECBAgQIECAAAECBLIWEGBl3R7FESBAgAABAgQIECBAgAABAgQICLCMAQIECBAgQIAAAQIECBAgQIAAgawFBFhZt0dxBAgQIECAAAECBAgQIECAAAECAixjgAABAgQIECBAgAABAgQIECBAIGsBAVbW7VEcAQIECBAgQIAAAQIECBAgQICAAMsYIECAAAECBAgQIECAAAECBAgQyFpAgJV1exRHgAABAgQIECBAgAABAgQIECAgwDIGCBAgQIAAAQIECBAgQIAAAQIEshYQYGXdHsURIECAAAECBAgQIECAAAECBAgIsIwBAgQIECBAgAABAgQIECBAgACBrAUEWFm3R3EECBAgQIAAAQIECBAgQIAAAQICLGOAAAECBAgQIECAAAECBAgQIEAgawEBVtbtURwBAgQIECBAgAABAgQIECBAgIAAyxggQIAAAQIECBAgQIAAAQIECBDIWkCAlXV7FEeAAAECBAgQIECAAAECBAgQICDAMgYIECBAgAABAgQIECBAgAABAgSyFhBgZd0exREgQIAAAQIECBAgQIAAAQIECAiwjAECBAgQIECAAAECBAgQIECAAIGsBQRYWbdHcQQIECBAgAABAgQIECBAgAABAgIsY4AAAQIECBAgQIAAAQIECBAgQCBrAQFW1u1RHAECBAgQIECAAAECBAgQIECAgADLGCBAgAABAgQIECBAgAABAgQIEMhaQICVdXsUR4AAAQIECBAgQIAAAQIECBAgIMAyBggQIECAAAECBAgQIECAAAECBLIWEGBl3R7FESBAgAABAgQIECBAgAABAgQICLCMAQIECBAgQIAAAQIECBAgQIAAgawFBFhZt0dxBAgQIECAAAECBAgQIECAAAECAixjgAABAgQIECBAgAABAgQIECBAIGsBAVbW7VEcAQIECBAgQIAAAQIECBAgQICAAMsYIECAAAECBAgQIECAAAECBAgQyFpAgJV1exRHgAABAgQIECBAgAABAgQIECAgwDIGCBAgQIAAAQIECBAgQIAAAQIEshYQYGXdHsURIECAAAECBAgQIECAAAECBAgIsIwBAgQIECBAgAABAgQIECBAgACBrAUEWFm3R3EECBAgQIAAAQIECBAgQIAAAQICLGOAAAECBAgQIECAAAECBAgQIEAgawEBVtbtURwBAgQIECBAgAABAgQIECBAgIAAyxggQIAAAQIECBAgQIAAAQIECBDIWkCAlXV7FEeAAAECBAgQIECAAAECBAgQICDAMgYIECBAgAABAgQIECBAgAABAgSyFhBgZd0exREgQIAAAQIECBAgQIAAAQIECAiwjAECBAgQIECAAAECBAgQIECAAIGsBQRYWbdHcQQIECBAgAABAgQIECBAgAABAgIsY4AAAQIECBAgQIAAAQIECBAgQCBrAQFW1u1RHAECBAgQIECAAAECBAgQIECAgADLGCBAgAABAgQIECBAgAABAgQIEMhaQICVdXsUR4AAAQIECBAgQIAAAQIECBAgIMAyBggQIECAAAECBAgQIECAAAECBLIWEGBl3R7FESBAgAABAgQIECBAgAABAgSEuOcOAAAgAElEQVQICLCMAQIECBAgQIAAAQIECBAgQIAAgawFBFhZt0dxBAgQIECAAAECBAgQIECAAAECAixjgAABAgQIECBAgAABAgQIECBAIGsBAVbW7VEcAQIECBAgQIAAAQIECBAgQICAAMsYIECAAAECBAgQIECAAAECBAgQyFpAgJV1exRHgAABAgQIECBAgAABAgQIECAgwDIGCBAgQIAAAQIECBAgQIAAAQIEshYQYGXdHsURIECAAAECBAgQIECAAAECBAgIsIwBAgQIECBAgAABAgQIECBAgACBrAUEWFm3R3EECBAgQIAAAQIECBAgQIAAAQICLGOAAAECBAgQIECAAAECBAgQIEAgawEBVtbtURwBAgQIECBAgAABAgQIECBAgIAAyxggQIAAAQIECBAgQIAAAQIECBDIWkCAlXV7FEeAAAECBAgQIECAAAECBAgQICDAMgYIECBAgAABAgQIECBAgAABAgSyFhBgZd0exREgQIAAAQIECBAgQIAAAQIECAiwjAECBAgQIECAAAECBAgQIECAAIGsBQRYWbdHcQQIECBAgAABAgQIECBAgAABAgIsY4AAAQIECBAgQIAAAQIECBAgQCBrAQFW1u1RHAECBAgQIECAAAECBAgQIECAgADLGCBAgAABAgQIECBAgAABAgQIEMhaQICVdXsUR4AAAQIECBAgQIAAAQIECBAgIMAyBggQIECAAAECBAgQIECAAAECBLIWEGBl3R7FESBAgAABAgQIECBAgAABAgQICLCMAQIECBAgQIAAAQIECBAgQIAAgawFBFhZt0dxBAgQIECAAAECBAgQIECAAAECAixjgAABAgQIECBAgAABAgQIECBAIGsBAVbW7VEcAQIECBAgQIAAAQIECBAgQICAAMsYIECAAAECBAgQIECAAAECBAgQyFpAgJV1exRHgAABAgQIECBAgAABAgQIECAgwDIGCBAgQIAAAQIECBAgQIAAAQIEshYQYGXdHsURIECAAAECBAgQIECAAAECBAgIsIwBAgQIECBAgAABAgQIECBAgACBrAUEWFm3R3EECBAgQIAAAQIECBAgQIAAAQICLGOAAAECBAgQIECAAAECBAgQIEAgawEBVtbtURwBAgQIECBAgAABAgQIECBAgIAAyxggQIAAAQIECBAgQIAAAQIECBDIWkCAlXV7FEeAAAECBAgQIECAAAECBAgQICDAMgYIECBAgAABAgQIECBAgAABAgSyFhBgZd0exREgQIAAAQIECBAgQIAAAQIECAiwjAECBAgQIECAAAECBAgQIECAAIGsBQRYWbdHcQQIECBAgAABAgQIECBAgAABAgIsY4AAAQIECBAgQIAAAQIECBAgQCBrAQFW1u1RHAECBAgQIECAAAECBAgQIECAgADLGCBAgAABAgQIECBAgAABAgQIEMhaQICVdXsUR4AAAQIECBAgQIAAAQIECBAgIMAyBggQIECAAAECBAgQIECAAAECBLIWEGBl3R7FESBAgAABAgQIECBAgAABAgQICLCMAQIECBAgQIAAAQIECBAgQIAAgawFBFhZt0dxBAgQIECAAAECBAgQIECAAAECAixjgAABAgQIECBAgAABAgQIECBAIGsBAVbW7VEcAQIECBAgQIAAAQIECBAgQICAAMsYIECAAAECBAgQIECAAAECBAgQyFpAgJV1exRHgAABAgQIECBAgAABAgQIECAgwDIGCBAgQIAAAQIECBAgQIAAAQIEshYQYGXdHsURIECAAAECBAgQIECAAAECBAgIsIwBAgQIECBAgAABAgQIECBAgACBrAUEWFm3R3EECBAgQIAAAQIECBAgQIAAAQICLGOAAAECBAgQIECAAAECBAgQIEAgawEBVtbtURwBAgQIECBAgAABAgQIECBAgIAAyxggQIAAAQIECBAgQIAAAQIECBDIWkCAlXV7FEeAAAECBAgQIECAAAECBAgQICDAMgYIECBAgAABAgQIECBAgAABAgSyFhBgZd0exREgQIAAAQIECBAgQIAAAQIECAiwjAECBAgQIECAAAECBAgQIECAAIGsBQRYWbdHcQQIECBAgAABAgQIECBAgAABAgIsY4AAAQIECBAgQIAAAQIECBAgQCBrAQFW1u1RHAECBAgQIECAAAECBAgQIECAgADLGCBAgAABAgQIECBAgAABAgQIEMhaQICVdXsUR4AAAQIECBAgQIAAAQIECBAgIMAyBggQIECAAAECBAgQIECAAAECBLIWEGBl3R7FESBAgAABAgQIECBAgAABAgQICLCMAQIECBAgQIAAAQIECBAgQIAAgawFBFhZt0dxBAgQIECAAAECBAgQIECAAAECAixjgAABAgQIECBAgAABAgQIECBAIGsBAVbW7VEcAQIECBAgQIAAAQIECBAgQICAAMsYIECAAAECBAgQIECAAAECBAgQyFpAgJV1exRHgAABAgQIECBAgAABAgQIECAgwDIGCBAgQIAAAQIECBAgQIAAAQIEshYQYGXdHsURIECAAAECBAgQIECAAAECBAgIsIwBAgQIECBAgAABAgQIECBAgACBrAUEWFm3R3EECBAgQIAAAQIECBAgQIAAAQICLGOAAAECBAgQIECAAAECBAgQIEAgawEBVtbtURwBAgQIECBAgAABAgQIECBAgIAAyxggQIAAAQIECBAgQIAAAQIECBDIWkCAlXV7FEeAAAECBAgQIECAAAECBAgQICDAMgYIECBAgAABAgQIECBAgAABAgSyFhBgZd0exREgQIAAAQIECBAgQIAAAQIECAiwjAECBAgQIECAAAECBAgQIECAAIGsBQRYWbdHcQQIECBAgAABAgQIECBAgAABAgIsY4AAAQIECBAgQIAAAQIECBAgQCBrAQFW1u1RHAECBAgQIECAAAECBAgQIECAgADLGCBAgAABAgQIECBAgAABAgQIEMhaQICVdXsUR4AAAQIECBAgQIAAAQIECBAgIMAyBggQIECAAAECBAgQIECAAAECBLIWEGBl3R7FESBAgAABAgQIECBAgAABAgQICLCMAQIECBAgQIAAAQIECBAgQIAAgawFBFhZt0dxBAgQIECAAAECBAgQIECAAAECAixjgAABAgQIECBAgAABAgQIECBAIGsBAVbW7VEcAQIECBAgQIAAAQIECBAgQICAAMsYIECAAAECBAgQIECAAAECBAgQyFpAgJV1exRHgAABAgQIECBAgAABAgQIECAgwDIGCBAgQIAAAQIECBAgQIAAAQIEshYQYGXdHsURIECAAAECBAgQIECAAAECBAgIsIwBAgQIECBAgAABAgQIECBAgACBrAUEWFm3R3EECBAgQIAAAQIECBAgQIAAAQICLGOAAAECBAgQIECAAAECBAgQIEAgawEBVtbtURwBAgQIECBAgAABAgQIECBAgIAAyxggQIAAAQIECBAgQIAAAQIECBDIWkCAlXV7FEeAAAECBAgQIECAAAECBAgQICDAMgYIECBAgAABAgQIECBAgAABAgSyFhBgZd0exREgQIAAAQIECBAgQIAAAQIECAiwjAECBAgQIECAAAECBAgQIECAAIGsBQRYWbdHcQQIECBAgAABAgQIECBAgAABAgIsY4AAAQIECBAgQIAAAQIECBAgQCBrAQFW1u1RHAECBAgQIECAAAECBAgQIECAgADLGCBAgAABAgQIECBAgAABAgQIEMhaQICVdXsUR4AAAQIECBAgQIAAAQIECBAgIMAyBggQIECAAAECBAgQIECAAAECBLIWEGBl3R7FESBAgAABAgQIECBAgAABAgQICLCMAQIECBAgQIAAAQIECBAgQIAAgawFBFhZt0dxBAgQIECAAAECBAgQIECAAAECAixjgAABAgQIECBAgAABAgQIECBAIGsBAVbW7VEcAQIECBAgQIAAAQIECBAgQICAAMsYIECAAAECBAgQIECAAAECBAgQyFpAgJV1exRHgAABAgQIECBAgAABAgQIECAgwDIGCBAgQIAAAQIECBAgQIAAAQIEshYQYGXdHsURIECAAAECBAgQIECAAAECBAgIsIwBAgQIECBAgAABAgQIECBAgACBrAUEWFm3R3EECBAgQIAAAQIECBAgQIAAAQICLGOAAAECBAgQIECAAAECBAgQIEAgawEBVtbtURwBAgQIECBAgAABAgQIECBAgIAAyxggQIAAAQIECBAgQIAAAQIECBDIWkCAlXV7FEeAAAECBAgQIECAAAECBAgQICDAMgYIECBAgAABAgQIECBAgAABAgSyFhBgZd0exREgQIAAAQIECBAgQIAAAQIECAiwjAECBAgQIECAAAECBAgQIECAAIGsBQRYWbdHcQQIECBAgAABAgQIECBAgAABAgIsY4AAAQIECBAgQIAAAQIECBAgQCBrAQFW1u1RHAECBAgQIECAAAECBAgQIECAgADLGCBAgAABAgQIECBAgAABAgQIEMhaQICVdXsUR4AAAQIECBAgQIAAAQIECBAgIMAyBggQIECAAAECBAj0hEAREfWIaP3ZE0UrkgABAgQIHBQBAdZBYfQgBAgQIECAAAECsyPQCmxm59F78VGJ9GLX1EyAAAECByogwDpQQfcnkImAN7OZNEIZByRgHO87n3kY+27mHgR6V8AMrN7tncoJECBA4EAFBFgHKuj+BOZRYCRGYkd9R+NkgvLmo+w8tsNTH7BAe/ymvy0rlsVADBzwox7SD1DsiCJ2HdK7aOcWsEB9bdSjtoABqne92LkjipGR6g1tQaBXBDreyo6vWt0rVauTAIE5EhBgzRG0pyEwGwI/HPtR/NXwByYe2uyV2VD2mHMlMHX8vm7Rq+PMvofO1dP35PP0D3w8Bvov68naFU2gSmBo6GtRrx9etdmC/v7yyz4Ufdf+eEEb2PlDVaAeW97v59uh2l37RWB/BQRY+yvnfgQyEJgaYGVQkhIIHDQBAVY1ZX//x2NgwBv8ailb9KKAAKu6a8su+1D0C7CqoWzRkwJb3v/xnqxb0QQIzJ6AAGv2bD0ygVkXEGDNOrEnmEcBAVY1vgCr2sgWvSsgwKrunQCr2sgWvSsgwOrd3qmcwGwJCLBmS9bjEpgDAQHWHCB7inkTEGBV0wuwqo1s0bsCAqzq3gmwqo1s0bsCAqze7Z3KCcyWgABrtmQ9LoE5EBBgzQGyp5g3AQFWNb0Aq9rIFr0rIMCq7p0Aq9rIFr0rIMDq3d6pnMBsCQiwZkvW4xKYAwEB1hwge4p5ExBgVdMLsKqNbNG7AgKs6t4JsKqNbNG7AgKs3u2dygnMloAAa7ZkPS6BORAQYM0BsqeYNwEBVjW9AKvayBa9KyDAqu6dAKvayBa9KyDA6t3eqZzAbAkIsGZL1uMSmAMBAdYcIHuKeRMQYFXTC7CqjWzRuwICrOreCbCqjWzRuwICrN7tncoJzJaAAGu2ZD0ugTkQEGDNAbKnmDcBAVY1vQCr2sgWvSsgwKrunQCr2sgWvSsgwOrd3qmcwGwJCLBmS9bjEpgDAQHWHCB7inkTEGBV0wuwqo1s0bsCAqzq3gmwqo1s0bsCAqze7Z3KCcyWgABrtmQ9LoE5EBBgzQGyp5g3AQFWNb0Aq9rIFr0rIMCq7p0Aq9rIFr0rIMDq3d6pnMBsCQiwZkvW4xKYAwEB1hwge4p5ExBgVdMLsKqNbNG7AgKs6t4JsKqNbNG7AgKs3u2dygnMloAAa7ZkPS6BORAQYM0BsqeYNwEBVjW9AKvayBa9KyDAqu6dAKvayBa9KyDA6t3eqZzAbAkIsGZL1uMSmAMBAdYcIHuKeRMQYFXTC7CqjWzRuwICrOreCbCqjWzRuwICrN7tncoJzJaAAGu2ZD0ugTkQEGDNAbKnmDcBAVY1vQCr2sgWvSsgwKrunQCr2sgWvSsgwOrd3qmcwGwJCLBmS9bjEpgDAQHWHCB7inkTEGBV0wuwqo1s0bsCAqzq3gmwqo1s0bsCAqze7Z3KCcyWgABrtmQ9LoE5EFi4AVY9ImoRUY/0t6LDOv09fa3q1r5f62+tR5nJvad59GmfvIiiWWv3e3ZUU0QU9ZnuRdVe9vb3BVjV/ZvrAGvq8VavRxSdB2Cz5Om+Xr1H7S2mPlf7O7N3fLSO/tYzdNm1sozmBo3t6xG1ovm6U4+o19IxvOeeTr8/5bZV39/zEcsiDlzjwB9hX/q6L9sKsKq1BFjVRt2PxvTaVUQ9vVg130U0Xsuax+507wTam3S8WhTj5YHf5b1I5/aN52sd6x3Puz97sFDuI8BaKJ22nwRmLiDAmrmVLQlkJ7DwAqzyjebeP+jN8MNYvR71In34K4OwyTHYgbb6AB6v8Q46vRme9qPzgRbXM/cXYFW3aq4DrOqKpt/iAI6KMuA5yOFuGbK1Xy9af9uXOve8d7VQuR/V203dohWWtQLDPcL79I30uraXhz4YweK+V77/9xBgVdsJsKqNJm9RHiGT49/m+4DmATL1XUT503g86o33C5237q8W9WI8iimBVvtenffpjMz3dT8WxvYCrIXRZ3tJYF8EBFj7omVbApkJLLwAq2zA2JbRGN44PPGr0mJZXwyeunjSTKzpWjX0k10xPjxevoFdVMTi05dE0VdEfaQeQ9funHGHO+c9LD51SdSWpWkX5QfIxlvjxjvg9kfJ4ZuGY/Tu9P9o+zn6ihg4YiBqa/tj0fqBKPrTnWYYwM240t7dUIBV3bv5CbDKMTo6GnH11RFjHUN6ouKOKUzpsFi3rvx/ydLysKiKZ6cGLb/4ecTWreWj1/oizjgjYvHiap+0xfev3Pt26SgdWBRx1JERRxwRUZv4jFp9LHZ+FN50X8SNN0bcfHN7FuiigYjjj49Yvz5i7druH2G3bYu47rqmSxFx6qkRy5dX79sNGyPuuae93f3uP7P7Jduf/zxi+7byvocdHnHiiY1XxBnOX62u7WBtIcCqlhRgVRsN1+tx1fadEz+TF9WKeMjyZR137AiV6vUoamlmVvntn+3cFdtGxxp/X9bfF/dfmt5rTHkFmzh0yjuldxg3Dw3HdTuHYuvo+MRbg/WDA3HK0sE4fKC//GXcfobZ1Xt86GwhwDp0emlPCBwsAQHWwZL0OATmQWChBljjO8fi+mf+Muq70m9Eyw9eJ3351Ohfk94UTn/bffPuuOmcXzWCpnTawLJHLI+j//y4KPprMXrPSFz/zF/sVxePvXRDLD1jafu+zSBrfGg8dnx3a9z1obtibHP5KX+6j4i1pbVY/tjlseqpa2PgpMXRvzS9s636mL9f5fbMnQRY1a2a6wCrM1jasqWIpz2tHps3V9eZtujvK+Kxv1mP886LuN/9Ivr6Zna/LVsinvTkiKFd5fYpwPrrD0U85jEzu/+DHzyz7cqtinjuc+vxB38QcfQxEX1TJ1xMeajdwxE/virikg9EXHt1xPg0059SKPa4xxfxhy+px2mnRwwuaj/QlVdGvPS8IsbG6tE/EPGJT0Q89KF7r3l4OOKFLyzimmvaT/isZ0W87W3V+zo8EvGSF0dcdVW57VlnRbzzndX3m48tBFjV6gKsKqMibtu9O574g59PCmh/7/BV8dYTj4nVA7VI/013O+fa6+PKLdsb3z5zxdL4zANPikVFretMx6Hx8fjmpq3xwZvujOt37Z72MR+9ekX8yQlHxWlLF0d/0Zr9dZAnglex9Mj3BVg90ihlEphDAQHWHGJ7KgIHW2DhBVjt+Gfn97fHra+/KerlZKpYe/ZhcfjLj5j21Ls0w+qm8zfG7l8OlR9TB4o4/rKTY/CE8pPk+L3jcd0zf7ZfLTruwxtiyQOWdszAihi9dzRue8tNMfTT8vk6b61YqvE734k1OJpb1CIG1i+Koy86NgZPnuEUk/2qOv87CbCqezTnAVbHjIEUXD3taREpYKq+tY/dNHPqt3874s1vjljWOQmiy4OkwOwv/iLic59rfzM90q8/JuIjl1Y/a9piZgHW5Gg51fjs50Rc8F+nf440a+qtb4tIs8NGRvY8xidlWc2HTwHV+S+PeMkfNk9frNejEWC9NBoz2gYGIi67LOLMM/e+b+m5zz47IgVZrduyZUV84Qv1xoyvqbfW/JL0Z6r1JS8u4sdXpdMNi3j6WfW4WIA1s8GU4VYCrKqmjMdtu0fjiT8of753HunL+mrxmNUr4vUb1scxjVQ5HSFloNT6OX3ONdfH97buaCxe8NAVy+LTD9zQCLCmziNNM7ze8atb4+c7h2J8Yn2r6U/oTbPAnrBmZbz71ONicS3N6SqXR3CbLCDAMiIIEJgqIMAyJgj0sMDCC7Baa2AVESPjceuFN0cKstKtb01/bPjUydG3avK0jvIjWhHb//e2uP2tt0R9rDx/ac1z18a6846a6H4KnDpnYPWvG4jakubCO13GSFlJ+Vb4qLcdE+k0wnRLpwSM3TsaN79sY4zc1f5UW1vWF/1H9EeaaVUbqMX46HjjPIPxrWMxet9YpFllrdvgKYsjhWK1wYrpHz08dmdSugCrWmmuA6zOilKAlWbvtGZgHX548xS2jvNiWqcLbtkasWlT+95pcuELXxjx2tfufR937Ig4+zkRN96053Yf+WjEb/x6tVFngLVmbcSqld3nQab6poZxLz8/4mUvbWbTHcf8NdeWX2+d1lhWUcThh9fjyKPSbLN2XXffHXHnnRFjY0Ucdng9vvLliFWrmklgPfY5wBodLeIlL6nHD3+4576/5jURL35x+do03WpYU2dgPf2sEGBVD6NstxBgVbfm1t3D8VvNAKvb1inIesHRh8dZ69bEhsWDzU3KOOncazbGlVu3N8Kl1gysgdasqWbM9ctdQ/H8q38VW0fHJoKvRbVapFMG1/T3RX8tYvdYxD0jo3HH8HBjpmbrVeikJYONWV2HD6QXjdYyAtX7tFC2EGAtlE7bTwIzFxBgzdzKlgSyE1h4AdbkFuz66c64+eU3TLwRXPrwZXHs+05obJROESwXaC5vN77s+tj9s3I2VN+Kvjjh0ydH/9r2KYdTA6yj331cLH1QxfSQ5ofWYnER6f1sKyzb9Hf3xt2X3jnx3MsetTKOuGB99C2Pcp2rximG5S9708yw8eGxGLlpJDZ94Z7Y/t3tseEzJ8ei49Psq4X9+1gBVvVLTk4B1lvfGvGUp3SveXQk4u8uj/jIR8qZRunY7OurxxVXFHHiieU477bA+OWXl6e3tdajSetI3Xdf+Ry/9msRH/1oNE67q6VjaZozbjsDrFe9KuJ5z+1+ZO0aivjC5yP+239rB1zHHF2LL14+HktXlIdjOnRvuSXinHMi7ru3/Thpfa+3vCXizIdHLBlsrqPVnPa0eyhi67aI919SxAkn1OMV5xdRdKzivq8zsL797YhX/HHr5aGIM86ox09+UpqsXh3xz9+IWLSkXCi+m6kAq/q46qUtBFjV3eoMsNLRvWHJ4rh1aHektbE6bynI+i9HrG2c3pdmSKVA6dzGDKwppxDWauV7jEinJ47Es6++Lu5OB1bz9qBlS+OS+x0fqxvhVRF9UTSWgN89Xo+rt++MV/7sxtgx1pw+HhFPPmx1fOj04xf4T/zufRRgVY9vWxBYaAICrIXWcft7SAksxACrnFXQXkL1rkvvjM2Xl58k04ylYz9wQiy+/9Kox3jjCoPpz61/vznufO/tE70/8oL1seqpayaNhakB1nGXHB9LHlq1kvKeMzlSdbe/5ebY/p1yheT+df1xwt+cHH3L9zzlIH2//QjljImx+0YnBWuH1IDdx50RYFWD5RRgXXxxxNOfXtbc7dpc4+MRH/hAxN/8TXu/XvfaIl74oj2D2nRcpBlRv/f7ETvKz47xhCdEPPG3It76lvLf6TS/T32qXNB9bwuQdwZYF1wQce65e3e98MKIr32t3Ka/P+Ib34hIs8vKWxHv/st6fPZv29dqSHWl8G7tYa0t2o/fLUDq/Fr6CPz9K+v7cAphEW97az2+8tXylSMtvn7ppRHPfnZEWgw+3dLpiOefP/0SegKs6uOql7YQYFV3a+oMrBcdvS7OPmptfOr2e+Lv79oc28faM6fSMXns4oF45pFr4zlHro3X/OymPQKscgZWeYxdevNd8cGb7pg4+fDs9YfFhRuOLgOwFCJ3eUXcPDYa5//0xviPrTvK15ki4hMPODketTK9d1nYa19O7aYAq3p824LAQhMQYC20jtvfQ0pgIQZYqYH1oh5Fc7rFyG3DceN5N8T49nKR9BWPXRlHXXzsxFvAsd3jccvLNsbujeWCqkseujSOu2TDHuOgW4C1+CHLJs3i6j540tvTNPU/XWkohVDjcetrb4wd/1Fe0bD/yIE4/qMn7rHAfOPjZ3pzO9r+8F7OzjqkhugB7YwAq5ovywBrIr0qQ5bOwGbnzohHP6o9c+l3freI9/xl95mGl38x4uKLSoPBwYgvfSkap+c9+UntWVgPf0TEJz8WjRmQ0906A6w/uSDinIoA6ytfjXjbW9uP9r73RTzpSeW/t22ffNpimnn15S9HrFzZ7dk74umJte72DL33ZQbWvfdE/M7vtta+KuL88+vxspdFXHRRxBe/WNZw3HERn/98xIo0a6zLTYBVfVz10hYCrOpuTQ2wXrx+XbzhxPWNn7f3/f8poe/41W3xrfu2RlqEvfO2rK8vBmtFbBoZ7XIKYcRY1OMxV/40No+ONV7nUvD1tTNPi8HOF6RivDk9tPzhXl7jpR6bxsbicVf+LIabz/mA5Uvi8gedErUFfvGWqd0UYFWPb1sQWGgCAqyF1nH7e0gJLNQAa2oTN11xb9z9ofKUvXT56/V/fmwsf2T56W3L1zfHne++rbyudUSsf9dxseI3VjY/Qbc/OE8NsNKi7LVV3WdNdT7/Ua8/OvpX93VM/a/HnZfcEVu+0l7wZ/CUwVjx+JWNxdnTEw/fMhojN++Osa1jMb5jrPEmulnnbhkAACAASURBVLF07JL+WHzaYKx6+poYOKK8zPZCvgmwqrufW4D1jGc0g9m9jN7OQCmFUe99X/f9TIuU/+QnZeDz6EdHfPjDEX395SlyaSZVeSviU5+qx8MeNr3Vvs7A+uIVERf/aTtkSzOcWlc8/Ld/i3j1q9vP9frXR+OKhdPeprvsaMcd9iXASmtc/eu/lndOAdU//ENaTyvi2p9EPPfs8utp4keq63nP716VAKv6uOqlLQRY1d3qNgPrDRvSGpjlz9h0et/PdwzFZbfdHV+7e8u0K8iduWJJfOaBJ0drBta3N2+LP/rJxomLsXz4/ifEb61ZuZcF2duXU0jzyN9x/a3xuTvSOdH1WNHfF199yKlxdOclSqt37ZDfQoB1yLfYDhLYZwEB1j6TuQOBfAQEWK3PsEXc9PLrY+gnuxpfWHzGkjj+gyfF6JaRuOH518X4UDqdMGLJI5bHse9Ja2RNzOufaObUAKv1jarPnxs+f0osOqq8kmHrNKadP9wZt1xwQ/r17Axvk58lzcQ6/GVHxOr/ctheZ5bM8MF7djMBVnXrcguwWqcQpsonnypXHh3f+lYRr3xlOzhOazm99LzOa3+V+/zdb0e8/BXt/X/veyOe/OTy32kW13OfG7FxY/nvpz61iHe9a/r14hoBVuMQK+KCC+p7PYVwdCziwjdEfP0b5X0WDRTxT/9Ub5xCmPbngx+K+MRl7bq+9b/KdacOJGreW4DVeSpm2t+032n/0ySNV72yvJph65ZOG/zOd8p/pZpSuLW8y1nQAqzq46qXthBgVXere4C1vuOOrdePIn68fWdcestdceWWHbFzLM2xat9ai7inBdrT68EX79oUb7nu5okA62e//uBJVznsXln7ub5539Z42c9uaGy2tK8Wf/egU+KUpQv76sNTzQRY1ePbFgQWmoAAa6F13P4eUgICrPbKN9u/uy1ue/MtZThVizj2/Rti6Jpdcc/Hy5lZtRV9jasU9h/WXri9czBMCrDSxKvJZxJMO24aAdb6gYlTBNIHy/Hxemz/X5vj9ovuiOhYqHUmg68VZaWZZIeff1SsfdaaxmpeC/EC2wKs6hGTc4DVqr4VZP3quogXvmjylf4+/7mIMx6QtmyHuLt3l2tp3XZb+bUzzyzXzap1nCb4iU+U62mlW39/0VynqnuI9eAHtx/7gv8ace4Lurtu+v8TId7xpylkS8dwWdEpp0b87d9GLCkvMhof+ODkAOvHP67uUdUWe5+B1a79A5dEfCKtH1aPWLasXHD+uBPacrffVroN7y4DwTe/OeI5z9nz2QVYVR3pre8LsKr7VR1gTbq2SoyN1+O6nUPxul/cFNfvKpcfSLcUYH36ASc11reqF0W8/6Y74mM339X43or+Wlz5iAdWB1iNqyuke9Tj25u2x3k/vaHxz4FaEZ95wElx5oqZXDymep8PlS0EWIdKJ+0HgYMnIMA6eJYeicCcCwiw2uT1sXrc+sabY+eV5YrP/esWRX1svLEoerqtftbaOOIVR007VWLqDKx1f3xkLDplMGp7mVuR3nQuPmNp1BZ1zr9ozZkoYtc1O2L7v2yLXdfujNEtZR3plgKvvnUD0beqFrXl/Y14anzXWKQQbuSW4cY26REHT10Sx/31hkhXOWxNGjuQmR5zPkAP8AkFWNWAuQRYaVw+/okR9zu9VXM7eLn1toi77iriqh9FDO1qXoahiDjr6e01rjr39P/+34hXnB8xMhrR1xfxl3/ZXoOqtd2uXRFP+b2Ie5tXJHzkI8srHKZF16feOk8hTGtVpVPvukVdd98VMdK+kFjjsf7qryIe//j2I37s4xF//aHWEVpvrH910smzNwOr9cz33hvxrGdFpD/Ts6V9f9ef15szNMuAO13dMV1lsTULK/UiXflx6k2AVX1c9dIWAqzqblUFWI1fEE1ap658zPQLqWf/+Lq4alu5puXEDKwiXSAm4it3b4o3/vLmiQK+/8gHNE4FnHJxw+b3J1+AJv3rH+7dHK/7+U2N76crIF7x4FNjQ7qMqduEgADLYCBAYKqAAMuYINDDAgKsdvPSm8H61vHY+Ae/bKwt1XmrrazFSX93WtQWt9a0qketqMV4vT3NamqAdcwlx8eyxlUIq04i7DKAylVaJ77RWNy9+zvaPe5844uvj93XDzW+3reyL07421Oif2VaJH7h3QRY1T3PJcCqrrS9RZpJlRYa//SnI9aubX09HZvlgu+ve109/uVfyq+n73/pixErVu35DJ/5THsW1tKlEZ/9bMTJJ++5XWeANZM60+GbQq4LLyzi93+/fRyn60b8728X8fLz219LoVK6AuGBrLs83Qys1sy19Odfva+IT3+mfN5aX8S3vhmR9nni1szNf/CDiPPOa3/5oj+NeMZ/nrzXAqyZjILe2UaAVd2rqgCrfIR681TA8u+Nqx0XRZxz9XXxvebVAlsB1kDzgL9m+1A868e/nCjgzSetj3OOSpcsne5XTe33EynKf+Mvb4mv3l2ul7m6vy/+4WGnx9puKXz1Lh6yWwiwDtnW2jEC+y0gwNpvOnckMP8CAqwpPRiPuOvDt8fmKzY334CWKxof9aajY+Vvr0ofjxuznVpvTjvv3QqwWt897pITYslD92Eq/6TQqiP0an49ffhtnDnQuNBg0QjP0pvj9LXO210fuD02f7l8Q9u3pj82fPrkRpC1EG8CrOqu91qAtX59xB/9YcRTnhKxtMvh9b3vRbz0peUpfCm4SWs4nXJK63BuHlfNz4bbt0f86lftrPjcczsXd2/bdZ5CWC0a8Z9+LeJP3xFx7LHl59DOj6Ip/PmdJ7dmQqVTC4v47GfrZY37eZsuwGoF39t3lAu033hj+QSLF0ecfr/y9aR9K23SGctXX93+6hFHRFx+ecSaNe2vCbD2s1GZ3k2AVd2Y6gCrvS5V5/uDdIydc+3G+N7WbY0nKQOstIh7+ZzpV2VP/eEvYmPzNMN1iwbiiw85JY4cGOhSVPkc5VuCIv7PlnT64MYYGS+//vg1K+PS+5+w11nf1Xt66G0hwDr0emqPCByogADrQAXdn8A8CgiwSvxGINT4Wz3qO8bi+uddF/Ut5eKrfav64sTPnRq1pR0L6HTp2dQZWGWAtTzqRX2PkKn5pI2vp6sXpedvRVZpptXQtbvitjfdHIe9aF0se9Ty5tUHO550IuzqnN1VxNi20bjtwptj1zXl6QqDJw/GcZeeGLXBVPs+LMw1j2PyYD61AKtaM6cA67G/GXHaae2ai3paJyatXVWPEzdEnH5axMmnpCuFdp+fkMKX17y6XINqX2/pSBoYjPjKl5vBU8cDdM7AesELIs562uQJEkND5Wyrm24qP0imz56f/GTEQx7SfpDmkjWN0Pm/f7Ye735PRGsC52mnR7zznWn/0oyN9HrQcYpixz9ScHTTjREnnlieGlm+YkV8/8oytEunAKbnvuyyaKz71bqlxdjf+MbOuaDlg85kbmiazPH+90c87nHtx2sEWC+Jximd6ZZO5fyzi9NJVNMvhL+v/ThY2w8NfS3q9TSjxW06AQFW9dioDrCmf4xzr7k+vre1XJqgPQOr/X7i8jvvjbdff2s0c6h44tqV8faTjo4jF5UXd+l2nF69fVe89hc3xi1D5ZIBaQH3Kx58Spy4xALuUzshwKoe37YgsNAEBFgLreP295ASEGB1f3d4w4t+FcMby4VX+w7rj5Ov6PhUPc0ImBpgHXvJCbF0bzOwinrjA2z6QDv1dstrboidP0qXCovoW9YXg6csjlXPWB0rHl+eB5UWfy0apxQ2z/spIrZ+fUvcc9ldMXr3SLlke70ea599WBx+/pEdDz+Tj6yHzhAXYFX3MqcA6+J3Rjz9rOk+slXvy32bIn7/KRE7dlRvO90WT31qGSZ1LvjeDrCKKBdx3zOo+ad/jHj9G8rjOR1769YV8cXL67GmeYpja2W79LybN0ecfXZaZL5dRZoV9chHlQFc4zTG1utCvR5pptg3v1kuRH/HHRFf+EIZsrVmZE57CmERsXNbxOOfEJEWtp98q3otaH//gQ+K+O+fLa9LkT527/cMrKqn3P+2TXtPAVY1qgCr2mg2A6zt42PxjB/9ciKMStUcsWggXnXCkXHW4atiUVGm1enw2T4+Hu+54fb46l2bYleaZtq8nXv04fGmDUdX78gC3EKAtQCbbpcJVAgIsAwRAj0sIMDas3lpXsINL7ouRpoBVv9hA3FSI8Da++yCqQFW/9r+KCYtzj79QFn6iGVx1OuObjzDtu9si9vffnN5bkGXz5ypnr5V/dG3oogYq8fwXaMxvnksxnd3XPawiFj+Gyti/TuOjaK/GZA1Zm2lB8xvlsRsHUICrGrZrAKsi8ur4E29tdZy6vx6ZyCU/p6ClQv+JOLrXy9Tkv6BIt773nqsXN7thN/Jz/CVr0b8j/9Rfi2tmfXVrxaxalX7OOmcgbW3qxBedFHEFVeUpyQ21r45px4XXNC9B/fdF/GqV0b8+Oo9U53D10UsWxqxenXEPfdE3H1PeWXA1i0FXJ/+TMTK5mLye5uBdcWXytMZ0y1N6LjonRHrDmvmY3t5Kbju+oh3/VnrGYv4i3fXGwu/p1taqP4lL4740VXV46tzixROppByLm8CrGptAVa10WwGWOkV6r7RsTjv2o1x7Y5dzZ/Q5evCsr6+WDvQF4cN9MedwyON/1sztVLV6XXvaetWx9tPPjaW1so1t2a4XGb1Th8iWwiwDpFG2g0CB1FAgHUQMT0UgbkWEGBNLCjRWliiMXtp44uui+EbymvJ9x/WHyd96fRJi6p369PUAGtfern8sSvi6Hce15xPVY+dP9wRd773jhi/ZzTGUjDV+UGzYhZD32Atlj56eax/0zGNAG3hxFV7iguwqkdhLwRYM7kQwg03RJzVmL2VbkU87/n1eOMbqvc/bfGr6yKe+axy3ax0++M/nryQeecaWHsLsG6/PeK5z4247772QfqxjxXxqEdNOQqbYfLwSL2xgPs3/y0iXRWxfWJkxwUcpkTO6RTBI48s4pOfrMdRR5WvX1d+r971FML0QTad8njVVeWssAc8MOJTfxMxOMOLlD3veRHXXFNWdUa676ciBhftOQOrrbz3F6cUYL3z4nIdv7m6CbCqpQVY1UazG2CVz59mYr38JzfEVdt3xXDH7Ko9qmscZrVY1hfxgmPWxSuOWRf96aqGRXqvsPelDqr39NDbQoB16PXUHhE4UAEB1oEKuj+BeRQQYHXH7zyFsBFg7ccphFVt7fyot+w3V8QxFx3XcZci0q9Zd9841AjSdvyf7bHjP3bG2D0j3R92oBaL77c4Vj5pVSw5Y0njlEO3CAFW9SjIKcC66OKIZ0yagTXzc87e+96IdFXBFLesXl1vLDx+xJHTX8trqswb3hDxj/9YfjUFPF/uWAtrpjOw0n2/+91yZtXIaPlYJ5wQ8bnPlYvJl9U1Du2JMwTT59QbNkZ859sR//pvaUZWuZZV+1YanH56xOMeH/GY34i4//3LGlunK053CmH6+h/9UTuYe/vbI575zOox0driS1+OeMfby3+l4CwFWA96UDkD68UvTsFYa8uZ9ckMrJnbz+WWAqxq7VkNsOrp6oVpYb96jNXrkda3+vu7N8d3Nm2LG4Z2T/xyrVXlg1csjd89bFU8Yc3KOGnJ4IL+JVV15yIEWDNRsg2BhSUgwFpY/ba3h5iAAKu3GlofK0OtxqLzW8aiWNUXRV8Rg8cNTF60p7d2a9aqFWBV085ngFVd3QLboihidKQeGze29zvNxTrqyIgVK9qh1wJTOaDdNQOrmk+AVW0091uUJ0nfMTIcW0bGYmisHkv6arF+8UCsqC3Mqwrvbw8EWPsr534EDl0BAdah21t7tgAEBFg93uSJqxH2+H7MUvkCrGpYAVa10Xxt0bnO13zV0OvPK8Cq7qAAq9pofrdonVLcOve2fGWY2bzH+a08h2cXYOXQBTUQyEtAgJVXP1RDYJ8EBFj7xDW/G09ZhH3izasQa9q+CLCqh6wAq9poPrYQXh0cdQFWtaMAq9po7rfovvBlWj8u/exvxFf1hXRJlv3vgABr/+3ck8ChKiDAOlQ7a78WhIAAa0G0ecHupACruvUCrGqjHLZoXNmwlj60LuTLMux7JwRY1WYCrGqj3Lbwe6uZd0SANXMrWxJYKAICrIXSaft5SAoIsPJva2uh5nLV59avXM3PmEnnBFjVSgKsaqP52MIRfnDUBVjVjgKsaqP52KJ9imC3kwWnnlY4HxX2xnMKsHqjT6okMJcCAqy51PZcBA6ygADrIIMe0g/Xex+pBVjVA1KAVW200LdozP5qLb/TYxgCrOqGCbCqjRbaFvuyvlY96lFr/HotzxcJAdZCG732l0C1gACr2sgWBLIVEGBl25psCuuMrdK6G+nNauPTbOtTbcanNAmwqoeRAKvaaKFt0T2wmvKRtkfOYRJgVY9eAVa10ULbYqYBVnoZGE9rcjXeBwiwFto4sb8EelVAgNWrnVM3gYgQYBkGexWY+JBavp1Nv2FNEVav3ARY1Z0SYFUbLewtZvpRNk8lAVZ1XwRY1UYLaovGId/8Od/4e/dgauJb9bzfGZiBtaBGr50lMCMBAdaMmGxEIE8BAVaefcmvqnSCQPo965Rb5p9tBVjVI0mAVW1ki24CmR/8zZIFWNWjV4BVbbRwt6iaWdX6fr6vBwKshTt67TmB6QQEWMYGgR4WEGD1cPNmvfTyjeno3SMxumU0Rm8cjqWPWh7Fsr7G18s1L/KejSXAqh4kAqxqo4W4xdBQxFVXRfz8FxFbNpWTMIp6xCMeGfGQh0QsXtwbKgKs6j4JsKqNFtIW//O+rbG73uUXVpMQ6s1VBNKc7CJW9kX85upVWTIJsLJsi6IIzKuAAGte+T05gQMT6JUAq/Xhafq9bU1hT5+yUrIyHvUine62t8vO7+tvDDt+E9l4miLqB2v9p+apevtcUfNDZdtlXx9himhRxPiOsdh19c7Y/q2tseN7O2L0npGJjY7/5Emx+KQe+eQaEQKs6teHXgiwquYAtPZyb9u1vlf+2TwltrGcW+v02OZC5V0y2QM8qqZtwnT17m0/ZlpLuY7VzLZuPd+OHRE/+EHE174W8Y1vRIyNdZbefqxVKyPOfWHEs54ZsWZNuc1Me1Q9Ig/uFgKsas9eCLDK9wBpUDcH25T1ltpLsjVHYteh322UTve1llvz9LlpD6UU9JS/zmnfo+JE++ZjFUUKgTpPz+t2ZcHmK1a3tzIpUa4XE0tSdu10UW8Ez/uywPpvfv+ncddw++f+tO8vOkxOXbY4/v4hp1UPtnnYQoA1D+iekkDmAgKszBukPAJ7E8g9wOr2nnFmH8m67XUR9eabuYl3wR0PNvE2di+LEzcCq6KcfTS+R3g0k7E2ufr935fON9eTP3E33g+P16OopXe8U2vay8fMoh7bv7M97nzP7TG+bSzqY3t+khdgzaTHvbVNLwRYewZU05zSeiD0RRlId1/tZc8H3pfApvk5M4qiFvWJmQ2tCyKUM5v2uB2kRdJnUmcKuq77ZT1e+eqI226NGJ+YfDHd61X60FyPhz+siI98tB6LBnNdvjlCgFV9UPRCgFUeDq1fVHULesr9TD//ao3Apnsw1bmKY2Pb1nJPrXCs8SgTEfe0C5O3ArX247VrmtnP9fa6UZOvidKuuxWDTXpVKsaba1K1flk3zRE+sV3an8kBW9WImD7Amv6eAqwqVd8nQCAnAQFWTt1QC4F9FMg9wJq4dntzplN7Jlb5pq3b0qGtq+QVjY07FiNtvC/d24ysKrz0oS19yJ08tX4mwVfrjXWjpvJtdvcna12rfp9mdnV/A9t91treP85u/ectccef3drt03SjZgFW1Rjpve/3SoA1eQbVZOepHxhb/564aua0bZnZR83Ou+/7PfZ3dtL08X35OjTNa0iXfe2cdTb12y3XnTsjXvSiiJ/+tL3FhhMj7n+/IhYNlM9136ZyhlbatnU7++yIC98kwOq9I79dcS8EWM1pRM2i9xYzd75StKKoZg41bbDVsugIj7rOjmq9p+js9uTna87Nbv6Er6izMUu8fDvQeTRPF2i15lGV73ta95nuZ/pMouvuo/bVP78xNo2MdTxHx3ZFxEi9Hj/cml4E2lU/ds3K+Pj9N2R5GJiBlWVbFEVgXgUEWPPK78kJHJhA9gFWc/fSbKDxHSk4KmdA9S1P6zBFjA2NRgwVUR9vvpFKv1Fd1BfFkiKKcpN2aNV8V9h+rPLbfav6yjeQY/UY2zIWI7ePxJIHLOkCW4Zf47vGY3z3+KQ1zYtFRdQW16IY6P6GtZwUVW+e0tM4wzHGdo5F7G6/AUxvSmsDEUV/EbE4olardX8D2WFS31Uva+m8LYqo9deiSPXMdDpJx/3vuOjW2P797bH66Wti8IwlcfuFt0y8URVgHdjxluO9cw+w0lpM6f906++LWLYiYnwsIp3uNjzcmGzYOE5qtYglSyIWL41Ih/7UeCdts31HxMhw+WF2YFHEsqXl46bH33xfNF4zjjxyzy6lxxobjdi1s4ih3c2V3+rN51wcsWRp+feZ3FLNKQAaGS1fT9Jj14oiBgbqMThYxKJF9ah124HWcR8Rw7vLxxgdbT9jOtYXLYoYHCz/nPmx3/4ofOutEX/w/CIe9vB6vPY1RRx7XOfrU+mcAq5zz43Yvbv93P/zn4s44siZB2ozcTpY25iBVS3ZCwHWSH08to+NN6Kb9Kurlf19jWNnx9hY7B6vN14HWj/ul9ZqsbQv/fzsDIHTz980AzJi1/h47G5OM+wviljeV67rOFwfi21j47FpeDROWVqeKt8ZFKXgeLRej13j9dg1Nta+UF/6kZ2es1aLvsoDryw0hUA7x8bLtabSaYDNtyqpnsFa+r/WyOzKmdStnUtvVFovNPUYbj7GcGPny0rT5v+vvTuBs6Oq0z7+1O3b+5Zesu8bIYCEEMGF1xEFN2ZQB1ARxw1nUNyFEV9U1EEdVxzFERRGdniVcWFgRhBREEQdZxAB2QmE7El3J53u9JLe7uu/zl07t/t0CN3V1f2rz0dD0ufWqfpW1e26zz3nX6VBoIogodJEEG5P8dFoo58XbrR64Rdu1ktL34A+/PhG/amzK1yBbefLG2r1pZXzVZ1I+k+2CFoQYEWATpcITHIBAqxJfoDYPARGE5j8AZa7Mev5c7e2ftKCFClRm9Ds8+ep85Z29TzWo/7tfUqlg6CgJFCyOanyxeVqeFuTKtdUZ2/sMiOSeh7r1tbzNmVZlt+8Sr0Pdav1ujb1PtSlREWgZT9ZtR9b/9Y+7bqiRT2P96h/x4BSfRYcuZvpksakknNLNeMNjap79SiFTINAPY90ade1bdr3VK8GWwYKRlJYmFZSW6Lk7FJVHVmtGac2KJEO6/I3qOsPe7X7xjb1bdingdbcp9jwg/yMpErqEiqdU6bqY6tV/8bGMNCym9iRa4mlb9MDaag3pVT3oEoaS9X95y5t/sCG7I38QmpgTbk3lMkeYF15pWT/s2X1aumUv5Vuukl6cr20qy3QwIB7j6ioSGnuPOnYY6T3vi9Qc9P+EdanLkjpnl+7dZ14ovR/z5d++EPp5pul9U9Jb/876WPn7H+I771XuvpqacMGafv2zM8DJUtSmjNXWrZM+uAHpUMPLXJ6pC8tC5tuuUX68Y+ljRul9j25lK2sLFBNXUozG6UFi6QTTpBe91op/FydvfpSYWB3w/XSbT+XNm8O1NGRqwlkwVV9vdTcFGjJkpROfI10wityQdZYxmPYZ/qtW6V5c+VCtOxSOBrs+uulr3wl99OrrpSOXpf/YX/yXCYEWP5jEYcA6972Tp37xMbwWrfw6h+XzNFNO9v1WFePWvsH1BcGUoGSCWl+WbnW1lXqw4tma15Zad4VZP8Z6JLNO3TNtrYw5T66rkr/euhi3dKyWzds36VHu3r0isZ6XXzIouwkRPdOktJDXT367uaderyrV1t7+9LP5bWQSJpVltTCigqdvWCmXlJfMyL6oFK6c1eHrtzaqg09+7R7YDD8cssWC69qkyVqLk1qQUWZXtZQqzfNblBpegqgG3npwq+bW9r1wx1t2tTTp/YBW6tbR1nCCqqXqKksqSUV5TpuRq1Ond2gkjFPjs48sKFwfLu9A3xn8w5dt61Nu/qtOF5KS6vK9U/LFujYOrvPmrwLAdbkPTZsGQJRCRBgRSVPvwg8DwKTP8ByO9nzpy5t+uizo+5xwbQaG+lfHqj53TM145SmcGRUdqrMw93ZUMZW2HBao9p/urug5tP8ryxS9YvSN6Epae/vOrXza9s0sNuFRbkpSsOG/kuq/qs6zTpnjpIz9v82cuQperldy6zbgqzFVy1Xsim3Hps21HFTu3Z8a9uYjn758nItvGSpEuVuSIe/GH7haruHWTECa0zssWo02QOsSy+V7H+jX/zp4jfpD3GzZklf+5q0dm3hq845R7rjDneFvXCd+9n/3pdr09Qs/fznUvozr/oHpG99S7rmav8htQDpQx+SzjhDSg679AcGpS98XvrJT9x6fNMQjz1W+rfLC8vv2Iirj58n3XN34RpGWtfpb5U+eb5r6977xj5CKrPO/I+w+f3ccIP05S/nTMznqGHWfrGJaUGA5XeOQ4B15+4Onf2o+zJltN/B+Xtro6K+unKhXtNcHxZLz4xFumjjdl2+eWfY9JCqCi2qKNcduyxRdosFZPccs1rleaOprtjaqq9uGOn3bu7qsFFPZ86fqbPmzVR1NoG2a89GiQX6zpYWfXfTDrkSk8OnHxYeq6WV5bp1rX2ZloufB/4yyurCp7fqxu1tBY3dFgx/Nwj04vpqXXX4Mv9JUNDChYEZ6Ye7uvWFZ7bp/g436qq5rFRvnDlDH1k0JwzMcrOZ82PyTHH7A+x6HJoTYI0DKqtEIOYCBFgxP4Bs/vQWiGOA4cqTcQAAIABJREFUlQuqAgVJC4xqVNrsvmXtvLNTgy39uY9q9s3oh+ao4ZTG7L8ND2XC21r3mJ5w+l7VMTWqf90M1b68LnxNz4N7tfm8TUr1ZKbqBUrUBqr5P7XhaKnBniF13bNXg+25kVCVh1dpwTcXp6cUuptKm3r4zGlParDLPdrLpkHWvaFBFYeUZ0/C7v/pUsevO5TqTGnGyTM069y52Z/ZvXTflj5tePfTSqWnDSZnJlX/hgaVLSzLttv7m07t/U2XUj2Daj5rthrPaAp/FhbA9U5vKLweCLCm/vtDXAOs+fOll7zETQPc3iLde4+0d2/ueFmg9JMfS/MXuRLGtrgAq9gxDTRvvo3eSumjH5UaG12bz/2TdNNPC4uaH3poSuvWudFRG56Vfv87N5XRFhu19OlPSaedlu4jPW3532+UvvDF3Ewgqy119llSMn3Ztu+Wfvd76a67bFpgoJtvTmnJsHIyl14ife97bsqkLUeukd75jtxH25ad0j33Svf+xv389p8HmjN37KFVvkqm6PzwUVv2/rFtW0onn1w4hfDuu6UZMw62xuD4XGsEWH7X2AVYeTnNrLLScMRTY2lSbQMDumd3p3Zb8pxeLGD5wRErtLq2MvuwhIs2btPlm1uKwtj61tVW67ylczQ3TLIDXbxph763eacG8+rOhaObGmpVFgThaKxft3eqd8imOLrlrAUz9bFF9vvbBTn2VnB7a4c+8sSG7DXcVJrUBxfNVnN6OqRNkfzvjm7d0daursEhXf2C5Tq2tjobQdu2/L/tbfr8M5vdOgJpWUW53r9wVrgd9gVVe/+g7m3v0q927QmnO966bpWWltsbzVjrCeRCtYFUoG9v2q5rtraG0y4zi00btFFXx86o1qmzGtWYTewnT2iVf3AJsPzvAbRAYLoJEGBNtyPO/k4pgTgGWHYjVrakVE3vmKWal9UW1J1K9aW09+5OtVyyQwO73GOgy+aXhSOZMvWphocy9unWpho2vrlJVS+skdWzCmvT2HS6zkE9++71GmhxN8TJ+qRmfmS2al5Zl66v4U4H69dGV7V+Z7sGu92N3syzZ2vG6U2ujoWkthvb1HrJjvBnFl4tvnyZkvPKcp9qs9+eptS7fl8YjpXOcsFcpvh829UtaruyNQzESmYkteSKZUo2lbppiNkC9bbhKfU82q3SeWUqbUgewNiLwtObAGtKXe5FdyZOAZbVmXr1q6R3vks6/PDC3Wltla69Vrr++kB9fe5D2KmnpPTZz+XaDQ+wqqqkU06RXv8G6dD8WcMp6d7fSmefnXvtcce5aYKHHZ7/UTDQjh0pffe70k/zgq4b/11atcq1s6mDf/030rat7u/HHx/o699IqbRglJb7RG5B2GOPSS84svDj5uCg9KIX5YIy2+YLLshMMSwcD2ojtf78sJtKefBL4YiOTRtdv3+8363ZPreef770pjcdfE/jtQYCLL9s3AIsOytfOqNG710wWy+sqw4D6szoKguBbtjeFk71sxpT9pNj6qt1xWFLVBq4KPsbG7frsvQIrPD3cRDo9TNn6M1zmrSmptKtLz1d76nuXr35oSfVnX4q75raKn1s0Wy9qL6m4B6gY3BQl23Zqau2tCic1SzpyiOW6SV1NpLbTfD7wGPP6le7OsKframt1rVHLFVZepvcK9yYR6tt9XhXj1ZVVai0JJEd5j2klF513+Pass8l5q9srNO3Vi0Oa15llsxtQF9qSA/t7dG62nShvzEHWOn3nkBhEPja+5/Qnn4b91V8qSop0Rtm1utDC+fIArnnFpn7z9GDaUGAdTB6vBaBqSlAgDU1jyt7NU0E4hhgJaoTWnr9SpXUJ7PPnw9vmgIrejoUhjmdv9yj7V/Ymj2Kcz49X3UnutpUw0OZ2lfWac6n5svqZ4VL3pMK997Voa2fc7W37P5v4TcXq3xl5YhTgNquadHuH7ih/RWryrXoe8uzw/+3X7RNHbfsdqsqD7Tk6hVKVFtYZoGTKyLft7kvHAVmwVOiPKVEVeFcpG0XblHnr2yqQ6BE1V9q3VgwV2FtXFH5cB0b9oV1wpIzS1VSWaKgIjd98kBPawKsAxWLX/s4BVhHrZEuv0Iqt4cd5D2JLzM11j6vfuK8QLffbschFY6kuvPOXCHk/ACrtFT65Cel005Jj5EIp8K4j1+27s9+1qb8ub/baC+rgVWdLvUy/GGm/f1u+uADD7jA553vlM49150LHR3SyX8j7W53f3/lKxWu28I4625gMNDQYEoPPuDCMStEb/8rr3Rvb/YR3ArMH3987tyyEV4f/lD4lufWMeD+fOBP0pqjJNs3C+esmLt3vuIYTllzffjP0lln5Z5AaAavfY30xS+54vphved0WD+GVU5YEwIsP3V8AiwrI5DSjGSJbjt6Vfin++7GXbtuhLELry/etF2XbLJpgoGqSxK6/ehVYcBiyzc27dBlm9JfJv1lBNVZC2fqIwvmFIX6/tad+tqG7eFlVFGS0DVHLAtHPblbAgumCkc2Xfj0Fv1Hi7vYrf7U5YctsfFXYY2udz38tO7v7AlfdVRttS5dvTj8mf3dRkvZqCorjr6sqkINyWRYiN4Kw2dCoa6hwTDA2pUeYXZiY70+v3x+WLjd2lhwZvW0Hujs1mE1lapMJMJ9Lx/tqRBF9jqjuGdgUK+9/3H1DA6FBeFNz/qx9yQbbeaKx7tlXV21rj5imZLmkXkvOJiHPvtP2zG3IMAaMxUNEZg2AgRY0+ZQs6NTUSCOAVZJXYmWXLvCPT0wXIqUJx6Snn7rkxrY4UZh1Z5Yr7mfnh/+9/BQZsXPD1WivPgjxFqvaNGua9JTDRKBSucmw6cCFS2IbDeP+1IaaHF9WhC18o7VbhODQF3379WWsI5XulpFeUIl1QmlBlIaGrDC6bkh+jZarHROqRre2qj6k9LzmQKp4xftBcFcojKhRKV9AA4fa6ShYesoW1SmmWfOUtVx9i3wWKcQ5M50AqypeNUX7lPcAqzvX+ECmvSFtd/zBu+7T3r3u3P7+OOfSCtXuL9bgfZfpqcQvuIVrr5VZsm/pu2D8Omnp/Tww+6nNh1xzpxhT/bLfHZLf1hrawvUudf940teLH3vstwWvufvA/3hD7kPe7W1Ulm5e7KhTXu0GlmZT6k1Na4ovI10slFcmeUtb3FPAMwstXWuVpeFS50d0uBgrgpOXb0bofbFL0pNbgbxAS+ZQZ0Wzl18sfSjH0ndXW4zbfrk297mRqRVVPgqeh1w18/rCwiw/JzxCbBcDaxMgNWQDqTyZvZl7wee7O7RyQ88mb2uLj98qV5WXxu+/hsbt+my9BRCC5J+eOTy3IP+hr2jnPXoBt29242asqeFLiwvDf/M/6IrX7hjYFBt6YBpRWW5bjxyharTQdvnn9mi6614fLhYwfZEOPXPBndZONWfFwhVlgRaVF6uf1wyVy+b4bbblvc+8kw4XTGzWL0uG4Fl69g7OBgGYZnFnq64vKpcn1s+X6urij1ZebRzwz3l8A97usLgz8wrbTSYhVeDKW3p69O3N+7U7/fktuULy+frtNlN7k4jDK+K3in5T8jnuQUB1vMMyuoQmAICBFhT4CCyC9NXII4BVsICrOtWKFlX8JiszD1h+s7pL/Vp3v2k+p5xQ+1tquG8zy8M/3t4KHPIXYeNeALsuGib9qRHTVkj+7bUhvHnOsvdLBb7GLfgO0tUdbgbwm91trZdsEV773Y3w2Nd5n91kaqPrQ1vCId6BrXl4xvV81D3KC8vnFJkDRddtlQVh4xyA5s3pCS/0Hu+la110ZXLVLa0IhuFTY7b05Epzin7iNaWHDVW6mnZLk4B1po1gb5/RSpbZH34AbPz8aknpVNPzf3k2mvcqCRb8kdgnfQ66ct5T9LLX5cFWH/916nwaYHPZVm0WPrPW3KvfOYZ6b1nSdvdoI9hy/Dr1f193jz3tMWKCtf8kUfs6YrSnvRILt922VoWL5Nu/EFuHb7XDP+59flPF0qP/uXPzFY2N0tnnimd8Var+ZU/7GqSDLcYthMEWP6jHrsAq7REt611I7BG+mLGptmdcN9j2Z2/+NCFenVjQ/j3/CmEx9bVhKOqRlpOefApPbLXft/u/3u12JVs/5a5K2gqLdXP1q5UfbpG1NZ9/TrzkafDpw+OdWikhUe/WLdKVenHgm7t69MZD67X9j73RZl/CTSvvFS3HLUyLCpfbNSYfx0jt3jtHx/Xhl7bH+klM2r0b6uXhlMyLepy90oH/sXZwWxPsdcSYD3foqwPgfgLEGDF/xiyB9NYII4BVjgC67oVsj9deWY3cml4gPTkSY+lRzUFmvG3MzTzo3PDKTljCrAyoyqualHbVW4EVqIqodrX1CtRmr4hC+9S07WnrH+rAx+kFKRcMVXbIHsCYulsG3jvXjO0b0idd3doz093q/eRnuyZV760XKVzy5Scm1TPAz3a91Rv9mfVf1Wr+Re68M2WsGj8nXu0+8e7tW99rl358gqVzi9TSVNCPf/brb5N6crSkhrfPlPN75k54rfGmXW7282cqbNy0zZs4SmEU+/NIl4BlmQjsDJPCSwWGv/HzdIFn84dp3vukerrXcuxBlj2ahvF9cf7XFWauXNTOuFVUpHIvOgJUVtvgVVuSqI1amuTbrheuulmqXWnu6JKy6TDDgu0dEkqHNX0y19K7XkB1Tcukk58lXt3s9EMO3ZIV14Z6Gc/S2lP+qFpFnAdsko64jCps1P65a9y0/zslVddJR19tJviZ+9RxRbTyX/umI0Is3pi371U6sm9TWnxUunb35SsCH3+Mjk+phbfNwIs/3tW7AKs9BTChtJSDVnh9MAqR7klPQlYv93TqTMffjq78zevPUSHVLo0OP8phL4A65wnNupnre6itCl5b5rdpEy1gbC2VTh1sfgIbpsC+A8LZsqehphJtfYMDupHO3brB9tbtanX/Y62wGd1TaUWlJdpdjKpX+zeIwu7MssFy+bpbXOas6PLWgf6dc22Xbppxy7tTAdZNpLLCtUvr6wIp/H9oq1duwcGw5paNkXxm6sW67VNVkYhfbWOMHAyf/RU+OTG9IzAoYL3j9wVf96Tm3RziyuNsLa2SlcfvkxW5N0dh8nxzkCA5X8PoAUC002AAGu6HXH2d0oJxDHAsiBpydXLwxpPRZehQK1X7cxN/bORCJcvU/lKd/M6pgArbBmo+7692nyuDcNIhVMHG982U43vakrXyypyB5iuReE+KLqbt7BVeoTTUO+QEhXFb3bdvriPkvbUw+4/uEeqVa6t1oKvL3J9WkjWlwpraLkPpAUTn7J9pnqHtPEDT2vfevfNaP3rGzT7nHn7Tbca/WQO1P1wlzZ/IPfo8sIAa3LcnI62D4zA8r9dxSnAWn2YdM3Vbkpf/pLJZfbtk/7+PdKDD7qfLlwY6L/+K5fajD3ACvTVr0jXXe9ea0/Y+5d/kY5eN/p4gswVUeyzYXdPoKpKV8w5c6UPPzq7dkknnZQLoD71Sektp7s+baqg1bqyulb56x9+FT71lHTGGYF6e11PF10kvSoMwUZbcuMyHnlU+vbF0m9/mwvgbLriO97uRl6F0zcn96zBgh0lwPIdeyluAZZNm/vPtYdoVngyFl4BmcHE+cGTPaHwZ2sP0Yz0SKgDGYH1wx1t+tz6LS5wDhL655ULdHKzPXJz+LL/78NwWzJXvIVBf5nGbAFWnaXV4VL83cAKwp9432Oy6Yi2/MP8WTp38ezsF2HdQ4NhbSwXThVfdg0M6DV/fFyd6XV8fMk8vWdes/fStW3sTE9ntKcLZoKoTFH7/N429uzTGQ+vV2ufe8jNyxtqdcnqJbJxXpNpIcCaTEeDbUFgcggQYE2O48BWIPCcBOIYYNmOWohlUwIrVlWGTw3MjnzaN6TW69u059/bwoLmtlQcVqmFly51UVIqdQABlru9fPZd69W/oS97I1pzXK2a3z9byRlJ98TCzK1ofyoMl3qf6FHVUdVuuyxgSgRudFZfSs+87SnVv65e9a9vVKImocA+jNq3s+nC0UN9Q2Edq03vf1p9W9w3sDPe2KBZH5sTDqHob+nXprOfUeNbm8MnIZZUldhddVjM2VV0HlKqP6X+HQPa9MFnNNjubiybz56lxrc0jzoKI7yd7k9poMO+tXXRW/fj3dr+yU3Zm+T531is8sXp9CBIqaShNPyGdrIuBFj+IxOnACv8kHS89I/nSjNnuqfg2TI0FKilJaWPn2fT3XLBy/veJ73//TmDsQdYrt6U1Xmy0CizfPRj0t++0U3Js/I79v5g9efs89v27ZI9pc9qaw2/Jn5xu/S1r0ufPl9ac7R7vdXASsfbYf0dm4VjNbfOTNfvsnVceYULzWy5/oZAN96YkoVaVhvLCr2HRdoz7z8pN1rq7l9L533C/aOt4yc/kpav9J8H1uKOOwJdcEFKXV259jZl8KKLAi1YUPyjsv2rjYizkG8yLgRY/qMStwDLwpS1NVX63Ir5ml9WqrLwd+hQWAR998CQLli/WffsztVmOqm5Xl8/ZFFYAsCWAwmwtu3r1ykPPhk+kS+T3L59XrPeO39mWCA9mR6yZLcbVn+qtX9Af9izV6fNanS1srKRUUq/39Oljzz+rM5fOlfHN9SFI7Os/KYb9exGSfYNDumJnl696YGn3DUs6durF+vEBjd66rbWDn15w3Z9dvkcHV1brYpESXodLsyywKx3KKWHurr1jofcCDRbx7VHLNML62oUBDZqbORf2jbt7+NPbNKvd3fq9bNm6M2zG8OgMBHYvrpi84OplO7c3anPP71V+4ZyI+C/fMgivSEM9ybXl1sEWP73AFogMN0ECLCm2xFnf6eUQFwDrPAgJKTkzKSSFqLYU7CGpP5tfRpsd99ahjdu5YEWfnOJKlbn6j+NfQSWW0f/jj5t/tiz6t+aV3OiLFBpU1LJRjcKzIKqwY4BDbYOykKoBRctVtVae2SZG6pg27btgk3ae6+7qbZRWKVzS1XSkFSQHpFlLQf2DKjvmX3ZYuyJmhItvmyZSueVhsXet5z7rLofcPWvLMSzpxVaMfsgXYTegjJbh01BtMDMFgvabORUsrHwiYbFTuSeP3VpU1ho3r9Yv2Ex/WK1yPwvn5AWBFh+5lgFWOmRPxbc2JMBrRi6fXa1wGXLlkDd3ZkJRIGOWpsKi7TnBysHEmCZ3G23SZ/5jNSbm6mrujpp9uz0EwlTks3gsWl/O3dKFvZYYGQjljJxj037O+MMqaXFpuO4JyPa661tJuiy0VU7d0hPrbcnibrXnnCC9PWL3P5ZXS9bh40ws7/ba2fNkpqbcv3YQIttW6Wnc7Om9OY3uyctpjPyoidDpli7/fDII/3nS/a9NTN+JAh0zLpUOLVzMi4EWP6jErcAK7NHySDQ/IrSsBaWhVMW3FjtKxt1lLn+VlVX6vLDlmpWuuC7vfZAAix7y/ldx159+LFnsyOibB1WT8pqS9VYYfMgCIOd9v4B7egbCOOoH7xguQ6tzt132FP77CmEf+p0v79tNNjc8qSaS0uVtMcIWgSXSqmlf0Dru/eFwZD961G1Vbr2BcvDaYY79/XrTQ+s187+vvBnjaWlmlOWVHNZMh2WKQyXdvT166nufeF/2/Lqpjr9y6rF6ZFReSPDi5wa/9PRpfc88nTBEwZtKmRZkAiLzncODIVPILT/Zd8LgkAnNdXrSysXhO1y70rWIvpvuAiw/O8BtEBgugkQYE23I87+TimBOAZYNpVPpQml9uWCqtxByc1tsbpScz49T+XLczeR9h1lV7auk3vVaEXcMwFU38Y+7fzWNvU82B2OUirWX/6JEY76usRGfbllcO+Qdn55i3oe6dHArtwjxzKP/y52UpUtLtOsD89V1TpXBH6gZUDbv7g1rHs12Fls3/dfiwV3s8+bo/KlY3sCUSbAGssMoZK6pJZct5wAK+bvCHEKsGzG0OCgjbjKfDDaf1SQtXnZy6Qv/bNUWZUOkNMfoyzA+uUdbrrcaEXcMx/x7PPfrbemdNllkhViL3za2f4z6SyQuvjiQC9/eXq7Ahc+XXih9PgTUs9oz15In0cWzr1wnfTFf3ZPELQ9+M29blqfBVx9ff6r00r9WM2uz35m/+mWo52uLsDyrz/7wTX9UfWYF7raZJNxIcDyH5W4BVgWkVig0x/WnyqsNZc5fS3cWltboy+tnBfWlnKhihvplAmw7LXH1FaPWsQ9o/e7PXv11Q3bZU83tLBqtN/d9pqPL5kbTtnLBDidg4P66OPP6qG9PeocHErXznKjwouNbbTtX11doa+uXKxllWVhmye7e/WZ9Vv0RFdv+NRC31KWCHRMXbW+snKRmvMCvNFe94Mdrbp8a5u29exLVxcdvRebznlCY50+vXReGOpNxoUAazIeFbYJgWgFCLCi9ad3BA5KII4BVkltiRb86xJ1/Fe72m9uV6q38EaufEWFGt/erOpja5SozA3NzxQw7n54rzZ/YGP2Y1rRAKvIZzgbAdW3o18dP9ql9tt2K9Vj5Z1zg+XDGhmLytRwapNq/qpWyYbCEU82Cmuoa1C9f+5W+01t6v5Tj1L79r91LV9ZqYa3NKrmpbXhKKv84ss2LXJo75C6/qdTe25uV++jPelArXCDbQpjw+lNqjyqKltza7QizuFWBFLv/b4RWJnJhUPKPA2SEVgHdQlG/uI4BVhHHCF94hPSpd+VfntvHl3gprEdd5xk0wZXrHC1moZPZMmMwLKz+HUjPIWw2OQXG+FlT+S74grp3vx+05tgI5yOPVb6u79zf5ZXFI476OuTdu+SfnarK9SeqdGVf/CtrtdLXyq9612S7aftj9XOC4ZS4XuAjb5qbXVPJrzrLunxx+3VuQcu2N9qaqTjj3e1qpYuDVRSMlKFnOKn3ZFrDrBMXno1BFiRX8YHtQFxC7DqkyX6zmGLdc3WXfpV254wUMosFvysq63W+xbO1Lq6allx8+GjgC7auE2Xb3YPZzm2zgKs5WOKbXtSQ2GA9W9b2vbrN9P/mrpqvWNWk45vqg2nGOb6ToWB257+wbBI+62tHeFUw+GLTTt88YxavXNOk15cXx0WRHcPi3F/9KVS2tU/qP9s3a1ftHXogfSIrsx6rFlZokT/p6FGZ86dqSNrK8LaXWNdUhpS15D02N4eXb29Rf/d3qWOAfvGoPC9ZH55mU6f06iTZzVodqmVjY9+pNVI+0iANdajTzsEpo8AAdb0Odbs6RQUiGWAlXkKYb3NG5QGdg0o1eeGsycqS8IpdbmwZoTRBOm6Ffbd50hP5grraoV1s9LpTv4NXErqb+sPp/VlbttsRJIFTtkl7DrzrW9uREZ2NTblsXVAqXCqgBsVYtP9bB+yQz2KBWl5TwOy6UYDLTa10X2La81t/8N1ZO9o0yuxOlyjln0dwwlu33ZnzSZXnYtiW88UQv8xjVOAtWZN7imENhJr+47057qU1NAgVVUVBsr7f6Qay+giV0sm8//ZD25usERY88qmBea/HcybX9x5+PUWrjeQ+vdJLa1ufZmi0zYlctibxygHz02XbHcP/8outo6RIivf1er7+cgbk286Fl//Ofl8tmAEll8zHgHWHp39qJveblMGbz16lRrCIng2bdBN77ezryZZklckvfi+Z6657G/EMZ22mas5c6UU9mv/OqesVBagpctt5nVu9yeZe4PMFRrI6k3ZdD+r3WWbYFMIF1TYaLHcO1f47+HTjTN7mFmtW48NCN/Z3x+O6LJplPavFi6554q6ql8HFmPnr9+9ekd/vwZsI9PbVZdMqDY72mr49e8/3ya6BQHWRIvTHwKTX4AAa/IfI7YQgREFYhtgWe2l+mT6w5+7PQtvo2zEwghD8g/kNMjeooY3jr5vFu2R0fYob0uICtva47VTNvQqs+TunD2bk7tZzG2LPXWw8GXDP3QWjrLK/NRqdAyN/S42PSVjtL0ONyM9jeJAXCe6LQGWXzyuAZZ/zw6uxWiBTrFrsugHRbuWhlL2HIdRP0S6D6+5mljuraTIGtMhWuYn2Yw8/aj74R89xyqQXwdrrK8Z3u75WMdz7Xu01xFg+VXjGWAdooaSpFKBfQGUP9Ipvb/pL3oyXyHl/RYuKGQefiFzoKOH7B5jWL/uQTL2u9ZqXrophmFAlp3imPuNamGT+3mxa9ztT/505cx9RH7r3DpGOL72O99cCp5U7D8XirfIezcM7yUS2eDdtc+MRvfdKz3X/g/udQRYB+fHqxGYigIEWFPxqLJP00YgtgFWWHupcIpeOIop/OSXO3zutqv4d5CjfTOZ+440m4wV+R6z4GPksHPmwMYz5I/UcN+45m33qF+fpkdEpXvP9lokTAtv5IfXCxm+1XmfiIvdio4Wpk3Gi4YAy39U4hpgHVBgMuxiP7CrM/cZMHNNDH/vyGxLsfeUzL8V6/NAt8N/NIu1eO5jMHz9jd+afT2P/ecEWH6reARYHTr70Q3hzlgB9NuOXhWOxMoEKCMVC3fnaP6VZv+dibUyNvkjpAq9cue4e10qSOR9kTTSFTyWK3v/NsW+39p/+9327d82t77cXUH+zcNYw6WCu59sX3ZLYSPGMs6ZJz9n/N0o8sm5EGBNzuPCViEQpQABVpT69I3AQQrEMcBK1pZo8fX7B1gHScHLp6AAAZb/oMYrwAr0/StSYX2r/PjYv5e0mK4CBFj+Ix+XAOv9j24Ix/q4AGtl+CcLAj4BAiyfED9HYPoJEGBNv2POHk8hgXgFWJvCug5WNHzxdSuUrEt/+xqHYQBT6JyJ064QYPmPVrwCrFwNLP+e0QIBiQDLfxbEIcC6a3eH3pcdgVWSHoFFgOU/urQgwOIcQACB4QIEWJwTCMRYIC4B1uDeQfWu71XCxqgnA1WsrlRQMtYh8TE+QGz6QQkQYPn5JnuAtXWrtHWL24+aWmnVqlytKP/e0WK6CxBg+c+AOARY7QMDeqK7N5zClgykI2s8K8gFAAAP+ElEQVQrlcwWRvfvIy2mrwAB1vQ99uw5AiMJEGBxbiAQY4G4BFj5xGOpLhHjQ8KmP48CBFh+zMkeYBXbgwOqf+UnoMUUFiDA8h/cOARYueKWfHHlP6K0yBcgwOJ8QACB4QIEWJwTCMRYIG4BVhhe5RUoJ8yK8ck3AZtOgOVHnqwBVv7M4CLPJPDvGC0QEFMIx3ISxCHAGvMDfMeyw7SZVgIEWNPqcLOzCIxJgABrTEw0QmByCsQtwJqcimzVZBUgwPIfmckaYPm3nBYI+AUYgeU3ikOA5d8LWiBQXIAAizMDAQSGCxBgcU4gEGMBAqwYHzw23StAgOUlEgGW34gW8RUgwPIfOwIsvxEt4itAgBXfY8eWIzBeAgRY4yXLehGYAAECrAlApovIBAiw/PQEWH4jWsRXgADLf+wIsPxGtIivAAFWfI8dW47AeAkQYI2XLOtFYAIECLAmAJkuIhMgwPLTE2D5jWgRXwECLP+xI8DyG9EivgIEWPE9dmw5AuMlQIA1XrKsF4EJECDAmgBkuohMgADLT0+A5TeiRXwFCLD8x44Ay29Ei/gKEGDF99ix5QiMlwAB1njJsl4EJkCAAGsCkOkiMgECLD89AZbfiBbxFSDA8h87Aiy/ES3iK0CAFd9jx5YjMF4CBFjjJct6EZgAAQKsCUCmi8gECLD89ARYfiNaxFeAAMt/7Aiw/Ea0iK8AAVZ8jx1bjsB4CRBgjZcs60VgAgQIsCYAmS4iEyDA8tMTYPmNaBFfAQIs/7EjwPIb0SK+AgRY8T12bDkC4yVAgDVesqwXgQkQIMCaAGS6iEyAAMtPT4DlN6JFfAUIsPzHjgDLb0SL+AoQYMX32LHlCIyXAAHWeMmyXgQmQIAAawKQ6SIyAQIsPz0Blt+IFvEVIMDyHzsCLL8RLeIrQIAV32PHliMwXgIEWOMly3oRmAABAqwJQKaLyAQIsPz0BFh+I1rEV4AAy3/sCLD8RrSIrwABVnyPHVuOwHgJEGCNlyzrRWACBAiwJgCZLiITIMDy0xNg+Y1oEV8BAiz/sSPA8hvRIr4CBFjxPXZsOQLjJUCANV6yrBeBCRAgwJoAZLqITIAAy09PgOU3okV8BQiw/MeOAMtvRIv4ChBgxffYseUIjJcAAdZ4ybJeBCZAgABrApDpIjIBAiw/PQGW34gW8RUgwPIfOwIsvxEt4itAgBXfY8eWIzBeAgRY4yXLehGYAAECrAlApovIBAiw/PQEWH4jWsRXgADLf+wIsPxGtIivAAFWfI8dW47AeAkQYI2XLOtFYAIEnk49o5v6b87rKSUpmICe6QKB8RAoPH/fWPp6LQuWjkdHU2adyZKfK1Fy+5TZH3YEgXyB/v7PKpWqV6BAKQ2BEwrY73h7r3RL+e23KLlxAzYITDkBO8u7//5DU26/2CEEEDg4AQKsg/Pj1QhMKoFUIAW5+9pJtW1sDAI+Ac5fnxA/R2A6CRQGNXw9s/+xt9/39r7JgsDUE8hd8alUSkHAiT71jjF7hMBzEyDAem5uvAqBSSMQ5lUpyf1u5xZ/0hwYNuQ5CLjzN5U+jbldfQ6EvASBKSjAb7YpeFDZJQRGFOCK5+RAAIGRBQiwODsQmFIC/NKfUodz2u0M5++0O+TsMAIjCAx/NygcjwUbAghMZYEgFaRHF6aUUKChvGmzU3m/2TcEEPALEGD5jWiBwKQWyBtkTf2rSX2k2LixCaRHYXE2j42LVghMEwHi7WEHOpvoEe1Nk0tgWu1mkEoplZ42yLU/rQ49O4uAV4AAy0tEAwQQQAABBBBAAAEEEEAAAQQQQACBKAUIsKLUp28EEEAAAQQQQAABBBBAAAEEEEAAAa8AAZaXiAYIIIAAAggggAACCCCAAAIIIIAAAlEKEGBFqU/fCCCAAAIIIIAAAggggAACCCCAAAJeAQIsLxENEEAAAQQQQAABBBBAAAEEEEAAAQSiFCDAilKfvhFAAAEEEEAAAQQQQAABBBBAAAEEvAIEWF4iGiCAAAIIIIAAAggggAACCCCAAAIIRClAgBWlPn0jgAACCCCAAAIIIIAAAggggAACCHgFCLC8RDRAAAEEEEAAAQQQQAABBBBAAAEEEIhSgAArSn36RgABBBBAAAEEEEAAAQQQQAABBBDwChBgeYlogAACCCCAAAIIIIAAAggggAACCCAQpQABVpT69I0AAggggAACCCCAAAIIIIAAAggg4BUgwPIS0QABBBBAAAEEEEAAAQQQQAABBBBAIEoBAqwo9ekbAQQQQAABBBBAAAEEEEAAAQQQQMArQIDlJaIBAggggAACCCCAAAIIIIAAAggggECUAgRYUerTNwIIIIAAAggggAACCCCAAAIIIICAV4AAy0tEAwQQQAABBBBAAAEEEEAAAQQQQACBKAUIsKLUp28EEEAAAQQQQAABBBBAAAEEEEAAAa8AAZaXiAYIIIAAAggggAACCCCAAAIIIIAAAlEKEGBFqU/fCCCAAAIIIIAAAggggAACCCCAAAJeAQIsLxENEEAAAQQQQAABBBBAAAEEEEAAAQSiFCDAilKfvhFAAAEEEEAAAQQQQAABBBBAAAEEvAIEWF4iGiCAAAIIIIAAAggggAACCCCAAAIIRClAgBWlPn0jgAACCCCAAAIIIIAAAggggAACCHgFCLC8RDRAAAEEEEAAAQQQQAABBBBAAAEEEIhSgAArSn36RgABBBBAAAEEEEAAAQQQQAABBBDwChBgeYlogAACCCCAAAIIIIAAAggggAACCCAQpQABVpT69I0AAggggAACCCCAAAIIIIAAAggg4BUgwPIS0QABBBBAAAEEEEAAAQQQQAABBBBAIEoBAqwo9ekbAQQQQAABBBBAAAEEEEAAAQQQQMArQIDlJaIBAggggAACCCCAAAIIIIAAAggggECUAgRYUerTNwIIIIAAAggggAACCCCAAAIIIICAV4AAy0tEAwQQQAABBBBAAAEEEEAAAQQQQACBKAUIsKLUp28EEEAAAQQQQAABBBBAAAEEEEAAAa8AAZaXiAYIIIAAAggggAACCCCAAAIIIIAAAlEKEGBFqU/fCCCAAAIIIIAAAggggAACCCCAAAJeAQIsLxENEEAAAQQQQAABBBBAAAEEEEAAAQSiFCDAilKfvhFAAAEEEEAAAQQQQAABBBBAAAEEvAIEWF4iGiCAAAIIIIAAAggggAACCCCAAAIIRClAgBWlPn0jgAACCCCAAAIIIIAAAggggAACCHgFCLC8RDRAAAEEEEAAAQQQQAABBBBAAAEEEIhSgAArSn36RgABBBBAAAEEEEAAAQQQQAABBBDwChBgeYlogAACCCCAAAIIIIAAAggggAACCCAQpQABVpT69I0AAggggAACCCCAAAIIIIAAAggg4BUgwPIS0QABBBBAAAEEEEAAAQQQQAABBBBAIEoBAqwo9ekbAQQQQAABBBBAAAEEEEAAAQQQQMArQIDlJaIBAggggAACCCCAAAIIIIAAAggggECUAgRYUerTNwIIIIAAAggggAACCCCAAAIIIICAV4AAy0tEAwQQQAABBBBAAAEEEEAAAQQQQACBKAUIsKLUp28EEEAAAQQQQAABBBBAAAEEEEAAAa8AAZaXiAYIIIAAAggggAACCCCAAAIIIIAAAlEKEGBFqU/fCCCAAAIIIIAAAggggAACCCCAAAJeAQIsLxENEEAAAQQQQAABBBBAAAEEEEAAAQSiFCDAilKfvhFAAAEEEEAAAQQQQAABBBBAAAEEvAIEWF4iGiCAAAIIIIAAAggggAACCCCAAAIIRClAgBWlPn0jgAACCCCAAAIIIIAAAggggAACCHgFCLC8RDRAAAEEEEAAAQQQQAABBBBAAAEEEIhSgAArSn36RgABBBBAAAEEEEAAAQQQQAABBBDwChBgeYlogAACCCCAAAIIIIAAAggggAACCCAQpQABVpT69I0AAggggAACCCCAAAIIIIAAAggg4BUgwPIS0QABBBBAAAEEEEAAAQQQQAABBBBAIEoBAqwo9ekbAQQQQAABBBBAAAEEEEAAAQQQQMArQIDlJaIBAggggAACCCCAAAIIIIAAAggggECUAgRYUerTNwIIIIAAAggggAACCCCAAAIIIICAV4AAy0tEAwQQQAABBBBAAAEEEEAAAQQQQACBKAUIsKLUp28EEEAAAQQQQAABBBBAAAEEEEAAAa8AAZaXiAYIIIAAAggggAACCCCAAAIIIIAAAlEKEGBFqU/fCCCAAAIIIIAAAggggAACCCCAAAJeAQIsLxENEEAAAQQQQAABBBBAAAEEEEAAAQSiFCDAilKfvhFAAAEEEEAAAQQQQAABBBBAAAEEvAIEWF4iGiCAAAIIIIAAAggggAACCCCAAAIIRClAgBWlPn0jgAACCCCAAAIIIIAAAggggAACCHgFCLC8RDRAAAEEEEAAAQQQQAABBBBAAAEEEIhSgAArSn36RgABBBBAAAEEEEAAAQQQQAABBBDwChBgeYlogAACCCCAAAIIIIAAAggggAACCCAQpQABVpT69I0AAggggAACCCCAAAIIIIAAAggg4BUgwPIS0QABBBBAAAEEEEAAAQQQQAABBBBAIEoBAqwo9ekbAQQQQAABBBBAAAEEEEAAAQQQQMArQIDlJaIBAggggAACCCCAAAIIIIAAAggggECUAgRYUerTNwIIIIAAAggggAACCCCAAAIIIICAV4AAy0tEAwQQQAABBBBAAAEEEEAAAQQQQACBKAUIsKLUp28EEEAAAQQQQAABBBBAAAEEEEAAAa8AAZaXiAYIIIAAAggggAACCCCAAAIIIIAAAlEKEGBFqU/fCCCAAAIIIIAAAggggAACCCCAAAJeAQIsLxENEEAAAQQQQAABBBBAAAEEEEAAAQSiFCDAilKfvhFAAAEEEEAAAQQQQAABBBBAAAEEvAIEWF4iGiCAAAIIIIAAAggggAACCCCAAAIIRClAgBWlPn0jgAACCCCAAAIIIIAAAggggAACCHgFCLC8RDRAAAEEEEAAAQQQQAABBBBAAAEEEIhSgAArSn36RgABBBBAAAEEEEAAAQQQQAABBBDwChBgeYlogAACCCCAAAIIIIAAAggggAACCCAQpQABVpT69I0AAggggAACCCCAAAIIIIAAAggg4BUgwPIS0QABBBBAAAEEEEAAAQQQQAABBBBAIEoBAqwo9ekbAQQQQAABBBBAAAEEEEAAAQQQQMArQIDlJaIBAggggAACCCCAAAIIIIAAAggggECUAgRYUerTNwIIIIAAAggggAACCCCAAAIIIICAV4AAy0tEAwQQQAABBBBAAAEEEEAAAQQQQACBKAUIsKLUp28EEEAAAQQQQAABBBBAAAEEEEAAAa8AAZaXiAYIIIAAAggggAACCCCAAAIIIIAAAlEKEGBFqU/fCCCAAAIIIIAAAggggAACCCCAAAJegf8Pe6UQWbLW2wsAAAAASUVORK5CYII=;" vertex="1" parent="1">
          <mxGeometry x="740" y="340" width="177.78" height="100" as="geometry" />
        </mxCell>
        <mxCell id="3IZcEz1XpjIlNzkrIGMt-13" value="&lt;span style=&quot;font-size: 17px;&quot;&gt;LÃ­quidos&lt;/span&gt;" style="text;html=1;align=center;verticalAlign=middle;whiteSpace=wrap;rounded=0;" vertex="1" parent="1">
          <mxGeometry x="798.89" y="370" width="60" height="30" as="geometry" />
        </mxCell>
        <mxCell id="3IZcEz1XpjIlNzkrIGMt-14" value="" style="whiteSpace=wrap;html=1;aspect=fixed;fillColor=#B5B5B5;gradientColor=#BABABA;strokeColor=#666666;strokeWidth=0;" vertex="1" parent="1">
          <mxGeometry x="940" y="340" width="100" height="100" as="geometry" />
        </mxCell>
        <mxCell id="3IZcEz1XpjIlNzkrIGMt-19" value="&lt;font style=&quot;font-size: 10px;&quot; face=&quot;Times New Roman&quot;&gt;Â¿A partir de quÃ© palabra tenÃ­as claro la categorÃ­a?&lt;/font&gt;" style="text;html=1;align=center;verticalAlign=middle;whiteSpace=wrap;rounded=0;" vertex="1" parent="1">
          <mxGeometry x="935" y="370" width="110" height="30" as="geometry" />
        </mxCell>
      </root>
    </mxGraphModel>
  </diagram>
</mxfile>
